<svg xmlns="http://www.w3.org/2000/svg" viewBox="0 0 440 468" width="440" height="468"><rect fill="#F2EEE5" x="0" y="0" width="440" height="468"></rect><rect fill="none" stroke="#9A9388" stroke-width="1.5" stroke-dasharray="5 5" x="70" y="38" width="300" height="300"></rect><g transform="translate(102,70)"><rect fill="#1F1E1C" x="0" y="0" width="236" height="16"></rect><rect fill="#1F1E1C" x="0" y="0" width="16" height="236"></rect><rect fill="#1F1E1C" x="0" y="220" width="236" height="16"></rect><rect fill="#1F1E1C" x="32" y="32" width="172" height="16"></rect><rect fill="#1F1E1C" x="32" y="32" width="16" height="172"></rect><rect fill="#1F1E1C" x="32" y="188" width="172" height="16"></rect><rect fill="#1F1E1C" x="64" y="64" width="108" height="16"></rect><rect fill="#1F1E1C" x="64" y="64" width="16" height="108"></rect><rect fill="#1F1E1C" x="64" y="156" width="108" height="16"></rect><rect fill="#1F1E1C" x="96" y="96" width="44" height="16"></rect><rect fill="#1F1E1C" x="96" y="96" width="16" height="44"></rect><rect fill="#1F1E1C" x="96" y="124" width="44" height="16"></rect></g><rect fill="#9A9388" x="70" y="25" width="32" height="2"></rect><g transform="translate(82.4,19)"><path fill="#1F1E1C" d="M1.860 0L0.600 0L2.940-3.396L0.744-6.600L2.016-6.600L3.324-4.560Q3.408-4.428 3.486-4.272Q3.564-4.116 3.612-4.020L3.612-4.020Q3.648-4.116 3.726-4.272Q3.804-4.428 3.888-4.560L3.888-4.560L5.208-6.600L6.468-6.600L4.272-3.384L6.600 0L5.328 0L3.912-2.160Q3.828-2.292 3.750-2.466Q3.672-2.640 3.612-2.748L3.612-2.748Q3.564-2.640 3.474-2.466Q3.384-2.292 3.288-2.160L3.288-2.160L1.860 0Z"></path></g><g transform="translate(105.7,380)"><path fill="#9A9388" d="M3.648 0.120L3.648 0.120Q2.856 0.120 2.274-0.180Q1.692-0.480 1.374-1.050Q1.056-1.620 1.056-2.400L1.056-2.400L1.056-6.360Q1.056-7.152 1.374-7.716Q1.692-8.280 2.274-8.580Q2.856-8.880 3.648-8.880L3.648-8.880Q4.440-8.880 5.016-8.574Q5.592-8.268 5.904-7.704Q6.216-7.140 6.216-6.360L6.216-6.360L5.136-6.360Q5.136-7.104 4.746-7.506Q4.356-7.908 3.648-7.908L3.648-7.908Q2.940-7.908 2.538-7.512Q2.136-7.116 2.136-6.372L2.136-6.372L2.136-2.400Q2.136-1.656 2.538-1.254Q2.940-0.852 3.648-0.852L3.648-0.852Q4.356-0.852 4.746-1.254Q5.136-1.656 5.136-2.400L5.136-2.400L6.216-2.400Q6.216-1.632 5.904-1.062Q5.592-0.492 5.016-0.186Q4.440 0.120 3.648 0.120ZM14.620 0L9.580 0L9.580-8.760L10.660-8.760L10.660-0.984L14.620-0.984L14.620 0ZM22.640 0L17.600 0L17.600-8.760L22.640-8.760L22.640-7.776L18.668-7.776L18.668-5.064L22.220-5.064L22.220-4.092L18.668-4.092L18.668-0.984L22.640-0.984L22.640 0ZM26.304 0L25.200 0L27.480-8.760L28.932-8.760L31.200 0L30.108 0L29.532-2.328L26.880-2.328L26.304 0ZM27.768-5.952L27.096-3.240L29.304-3.240L28.632-5.940Q28.440-6.708 28.332-7.224Q28.224-7.740 28.200-7.896L28.200-7.896Q28.176-7.740 28.068-7.224Q27.960-6.708 27.768-5.952L27.768-5.952ZM34.984 0L33.904 0L33.904-8.760L36.616-8.760Q37.396-8.760 37.984-8.442Q38.572-8.124 38.896-7.560Q39.220-6.996 39.220-6.240L39.220-6.240Q39.220-5.352 38.758-4.716Q38.296-4.080 37.504-3.840L37.504-3.840L39.340 0L38.068 0L36.388-3.720L34.984-3.720L34.984 0ZM34.984-7.788L34.984-4.692L36.616-4.692Q37.288-4.692 37.696-5.118Q38.104-5.544 38.104-6.240L38.104-6.240Q38.104-6.948 37.696-7.368Q37.288-7.788 36.616-7.788L36.616-7.788L34.984-7.788ZM52.848 0.120L52.848 0.120Q51.984 0.120 51.366-0.168Q50.748-0.456 50.412-0.996Q50.076-1.536 50.064-2.280L50.064-2.280L51.144-2.280Q51.144-1.620 51.594-1.236Q52.044-0.852 52.848-0.852L52.848-0.852Q53.604-0.852 54.030-1.224Q54.456-1.596 54.456-2.256L54.456-2.256Q54.456-2.784 54.174-3.180Q53.892-3.576 53.364-3.732L53.364-3.732L52.176-4.104Q51.276-4.380 50.790-5.028Q50.304-5.676 50.304-6.552L50.304-6.552Q50.304-7.260 50.622-7.782Q50.940-8.304 51.516-8.598Q52.092-8.892 52.872-8.892L52.872-8.892Q54.024-8.892 54.720-8.250Q55.416-7.608 55.428-6.540L55.428-6.540L54.348-6.540Q54.348-7.188 53.958-7.554Q53.568-7.920 52.860-7.920L52.860-7.920Q52.164-7.920 51.774-7.584Q51.384-7.248 51.384-6.648L51.384-6.648Q51.384-6.108 51.672-5.712Q51.960-5.316 52.500-5.148L52.500-5.148L53.700-4.764Q54.576-4.488 55.056-3.828Q55.536-3.168 55.536-2.280L55.536-2.280Q55.536-1.560 55.200-1.020Q54.864-0.480 54.258-0.180Q53.652 0.120 52.848 0.120ZM59.584 0L58.504 0L58.504-8.760L61.324-8.760Q62.140-8.760 62.740-8.442Q63.340-8.124 63.670-7.548Q64-6.972 64-6.180L64-6.180Q64-5.400 63.670-4.818Q63.340-4.236 62.740-3.918Q62.140-3.600 61.324-3.600L61.324-3.600L59.584-3.600L59.584 0ZM59.584-7.788L59.584-4.572L61.324-4.572Q62.032-4.572 62.458-5.010Q62.884-5.448 62.884-6.180L62.884-6.180Q62.884-6.924 62.458-7.356Q62.032-7.788 61.324-7.788L61.324-7.788L59.584-7.788ZM67.304 0L66.200 0L68.480-8.760L69.932-8.760L72.200 0L71.108 0L70.532-2.328L67.880-2.328L67.304 0ZM68.768-5.952L68.096-3.240L70.304-3.240L69.632-5.940Q69.440-6.708 69.332-7.224Q69.224-7.740 69.200-7.896L69.200-7.896Q69.176-7.740 69.068-7.224Q68.960-6.708 68.768-5.952L68.768-5.952ZM77.448 0.120L77.448 0.120Q76.656 0.120 76.074-0.180Q75.492-0.480 75.174-1.050Q74.856-1.620 74.856-2.400L74.856-2.400L74.856-6.360Q74.856-7.152 75.174-7.716Q75.492-8.280 76.074-8.580Q76.656-8.880 77.448-8.880L77.448-8.880Q78.240-8.880 78.816-8.574Q79.392-8.268 79.704-7.704Q80.016-7.140 80.016-6.360L80.016-6.360L78.936-6.360Q78.936-7.104 78.546-7.506Q78.156-7.908 77.448-7.908L77.448-7.908Q76.740-7.908 76.338-7.512Q75.936-7.116 75.936-6.372L75.936-6.372L75.936-2.400Q75.936-1.656 76.338-1.254Q76.740-0.852 77.448-0.852L77.448-0.852Q78.156-0.852 78.546-1.254Q78.936-1.656 78.936-2.400L78.936-2.400L80.016-2.400Q80.016-1.632 79.704-1.062Q79.392-0.492 78.816-0.186Q78.240 0.120 77.448 0.120ZM88.240 0L83.200 0L83.200-8.760L88.240-8.760L88.240-7.776L84.268-7.776L84.268-5.064L87.820-5.064L87.820-4.092L84.268-4.092L84.268-0.984L88.240-0.984L88.240 0ZM104.580 0L99.420 0L99.420-0.960L104.580-0.960L104.580 0ZM104.580-4.860L99.420-2.280L99.420-3.324L103.140-5.148Q103.368-5.256 103.566-5.334Q103.764-5.412 103.860-5.436L103.860-5.436Q103.752-5.460 103.548-5.538Q103.344-5.616 103.140-5.724L103.140-5.724L99.420-7.560L99.420-8.640L104.580-6.060L104.580-4.860ZM116.660 0L115.400 0L117.740-3.396L115.544-6.600L116.816-6.600L118.124-4.560Q118.208-4.428 118.286-4.272Q118.364-4.116 118.412-4.020L118.412-4.020Q118.448-4.116 118.526-4.272Q118.604-4.428 118.688-4.560L118.688-4.560L120.008-6.600L121.268-6.600L119.072-3.384L121.400 0L120.128 0L118.712-2.160Q118.628-2.292 118.550-2.466Q118.472-2.640 118.412-2.748L118.412-2.748Q118.364-2.640 118.274-2.466Q118.184-2.292 118.088-2.160L118.088-2.160L116.660 0ZM134.800 0.120L134.800 0.120Q134.008 0.120 133.438-0.180Q132.868-0.480 132.562-1.050Q132.256-1.620 132.256-2.400L132.256-2.400L132.256-6.360Q132.256-7.152 132.562-7.716Q132.868-8.280 133.438-8.580Q134.008-8.880 134.800-8.880L134.800-8.880Q135.592-8.880 136.162-8.580Q136.732-8.280 137.038-7.716Q137.344-7.152 137.344-6.372L137.344-6.372L137.344-2.400Q137.344-1.620 137.038-1.050Q136.732-0.480 136.162-0.180Q135.592 0.120 134.800 0.120ZM134.800-0.852L134.800-0.852Q135.508-0.852 135.886-1.254Q136.264-1.656 136.264-2.400L136.264-2.400L136.264-6.360Q136.264-7.104 135.886-7.506Q135.508-7.908 134.800-7.908L134.800-7.908Q134.104-7.908 133.720-7.506Q133.336-7.104 133.336-6.360L133.336-6.360L133.336-2.400Q133.336-1.656 133.720-1.254Q134.104-0.852 134.800-0.852ZM141.524 0L140.480 0L140.480-8.760L141.920-8.760L144.596-1.260Q144.572-1.560 144.542-1.998Q144.512-2.436 144.494-2.922Q144.476-3.408 144.476-3.840L144.476-3.840L144.476-8.760L145.520-8.760L145.520 0L144.080 0L141.416-7.500Q141.440-7.212 141.464-6.774Q141.488-6.336 141.506-5.850Q141.524-5.364 141.524-4.920L141.524-4.920L141.524 0ZM157.504 0L156.400 0L158.680-8.760L160.132-8.760L162.400 0L161.308 0L160.732-2.328L158.080-2.328L157.504 0ZM158.968-5.952L158.296-3.240L160.504-3.240L159.832-5.940Q159.640-6.708 159.532-7.224Q159.424-7.740 159.400-7.896L159.400-7.896Q159.376-7.740 159.268-7.224Q159.160-6.708 158.968-5.952L158.968-5.952ZM170.420 0L165.380 0L165.380-8.760L166.460-8.760L166.460-0.984L170.420-0.984L170.420 0ZM178.620 0L173.580 0L173.580-8.760L174.660-8.760L174.660-0.984L178.620-0.984L178.620 0ZM192.248 0.120L192.248 0.120Q191.384 0.120 190.766-0.168Q190.148-0.456 189.812-0.996Q189.476-1.536 189.464-2.280L189.464-2.280L190.544-2.280Q190.544-1.620 190.994-1.236Q191.444-0.852 192.248-0.852L192.248-0.852Q193.004-0.852 193.430-1.224Q193.856-1.596 193.856-2.256L193.856-2.256Q193.856-2.784 193.574-3.180Q193.292-3.576 192.764-3.732L192.764-3.732L191.576-4.104Q190.676-4.380 190.190-5.028Q189.704-5.676 189.704-6.552L189.704-6.552Q189.704-7.260 190.022-7.782Q190.340-8.304 190.916-8.598Q191.492-8.892 192.272-8.892L192.272-8.892Q193.424-8.892 194.120-8.250Q194.816-7.608 194.828-6.540L194.828-6.540L193.748-6.540Q193.748-7.188 193.358-7.554Q192.968-7.920 192.260-7.920L192.260-7.920Q191.564-7.920 191.174-7.584Q190.784-7.248 190.784-6.648L190.784-6.648Q190.784-6.108 191.072-5.712Q191.360-5.316 191.900-5.148L191.900-5.148L193.100-4.764Q193.976-4.488 194.456-3.828Q194.936-3.168 194.936-2.280L194.936-2.280Q194.936-1.560 194.600-1.020Q194.264-0.480 193.658-0.180Q193.052 0.120 192.248 0.120ZM202.740 0L198.060 0L198.060-0.984L199.848-0.984L199.848-7.776L198.060-7.776L198.060-8.760L202.740-8.760L202.740-7.776L200.952-7.776L200.952-0.984L202.740-0.984L202.740 0ZM208.372 0L206.104 0L206.104-8.760L208.372-8.760Q209.224-8.760 209.842-8.436Q210.460-8.112 210.802-7.524Q211.144-6.936 211.144-6.132L211.144-6.132L211.144-2.640Q211.144-1.836 210.802-1.242Q210.460-0.648 209.842-0.324Q209.224 0 208.372 0L208.372 0ZM207.184-7.800L207.184-0.960L208.372-0.960Q209.164-0.960 209.614-1.404Q210.064-1.848 210.064-2.640L210.064-2.640L210.064-6.132Q210.064-6.912 209.614-7.356Q209.164-7.800 208.372-7.800L208.372-7.800L207.184-7.800ZM219.440 0L214.400 0L214.400-8.760L219.440-8.760L219.440-7.776L215.468-7.776L215.468-5.064L219.020-5.064L219.020-4.092L215.468-4.092L215.468-0.984L219.440-0.984L219.440 0ZM225.048 0.120L225.048 0.120Q224.184 0.120 223.566-0.168Q222.948-0.456 222.612-0.996Q222.276-1.536 222.264-2.280L222.264-2.280L223.344-2.280Q223.344-1.620 223.794-1.236Q224.244-0.852 225.048-0.852L225.048-0.852Q225.804-0.852 226.230-1.224Q226.656-1.596 226.656-2.256L226.656-2.256Q226.656-2.784 226.374-3.180Q226.092-3.576 225.564-3.732L225.564-3.732L224.376-4.104Q223.476-4.380 222.990-5.028Q222.504-5.676 222.504-6.552L222.504-6.552Q222.504-7.260 222.822-7.782Q223.140-8.304 223.716-8.598Q224.292-8.892 225.072-8.892L225.072-8.892Q226.224-8.892 226.920-8.250Q227.616-7.608 227.628-6.540L227.628-6.540L226.548-6.540Q226.548-7.188 226.158-7.554Q225.768-7.920 225.060-7.920L225.060-7.920Q224.364-7.920 223.974-7.584Q223.584-7.248 223.584-6.648L223.584-6.648Q223.584-6.108 223.872-5.712Q224.160-5.316 224.700-5.148L224.700-5.148L225.900-4.764Q226.776-4.488 227.256-3.828Q227.736-3.168 227.736-2.280L227.736-2.280Q227.736-1.560 227.400-1.020Q227.064-0.480 226.458-0.180Q225.852 0.120 225.048 0.120Z"></path></g><g transform="translate(154,402)"><path fill="#9A9388" d="M1.705 0L0.550 0L2.695-3.113L0.682-6.050L1.848-6.050L3.047-4.180Q3.124-4.059 3.196-3.916Q3.267-3.773 3.311-3.685L3.311-3.685Q3.344-3.773 3.415-3.916Q3.487-4.059 3.564-4.180L3.564-4.180L4.774-6.050L5.929-6.050L3.916-3.102L6.050 0L4.884 0L3.586-1.980Q3.509-2.101 3.438-2.260Q3.366-2.420 3.311-2.519L3.311-2.519Q3.267-2.420 3.184-2.260Q3.102-2.101 3.014-1.980L3.014-1.980L1.705 0ZM18.865-4.510L14.135-4.510L14.135-5.390L18.865-5.390L18.865-4.510ZM18.865-1.870L14.135-1.870L14.135-2.750L18.865-2.750L18.865-1.870ZM29.700 0.088L29.700 0.088Q28.974 0.088 28.446-0.187Q27.918-0.462 27.627-0.984Q27.335-1.507 27.335-2.222L27.335-2.222L27.335-3.828Q27.335-4.554 27.627-5.071Q27.918-5.588 28.446-5.863Q28.974-6.138 29.700-6.138L29.700-6.138Q30.426-6.138 30.954-5.863Q31.482-5.588 31.773-5.071Q32.065-4.554 32.065-3.839L32.065-3.839L32.065-2.222Q32.065-1.507 31.773-0.984Q31.482-0.462 30.954-0.187Q30.426 0.088 29.700 0.088ZM29.700-0.792L29.700-0.792Q30.349-0.792 30.712-1.155Q31.075-1.518 31.075-2.222L31.075-2.222L31.075-3.828Q31.075-4.532 30.712-4.895Q30.349-5.258 29.700-5.258L29.700-5.258Q29.062-5.258 28.694-4.895Q28.325-4.532 28.325-3.828L28.325-3.828L28.325-2.222Q28.325-1.518 28.694-1.155Q29.062-0.792 29.700-0.792ZM35.002 0L34.012 0L34.012-6.050L35.002-6.050L35.002-4.895L35.211-4.895L35.002-4.664Q35.002-5.379 35.431-5.769Q35.860-6.160 36.619-6.160L36.619-6.160Q37.532-6.160 38.071-5.599Q38.610-5.038 38.610-4.070L38.610-4.070L38.610 0L37.620 0L37.620-3.960Q37.620-4.609 37.273-4.955Q36.927-5.302 36.333-5.302L36.333-5.302Q35.717-5.302 35.359-4.928Q35.002-4.554 35.002-3.850L35.002-3.850L35.002 0ZM42.900 0.110L42.900 0.110Q42.185 0.110 41.651-0.176Q41.118-0.462 40.827-0.984Q40.535-1.507 40.535-2.200L40.535-2.200L40.535-3.850Q40.535-4.554 40.827-5.071Q41.118-5.588 41.651-5.874Q42.185-6.160 42.900-6.160L42.900-6.160Q43.615-6.160 44.148-5.874Q44.682-5.588 44.974-5.071Q45.265-4.554 45.265-3.850L45.265-3.850L45.265-2.783L41.503-2.783L41.503-2.200Q41.503-1.485 41.866-1.105Q42.229-0.726 42.900-0.726L42.900-0.726Q43.472-0.726 43.824-0.929Q44.176-1.133 44.253-1.540L44.253-1.540L45.243-1.540Q45.144-0.781 44.501-0.335Q43.857 0.110 42.900 0.110ZM44.374-3.531L44.297-3.443L44.297-3.850Q44.297-4.565 43.940-4.950Q43.582-5.335 42.900-5.335L42.900-5.335Q42.229-5.335 41.866-4.950Q41.503-4.565 41.503-3.850L41.503-3.850L41.503-3.531L44.374-3.531ZM54.802 0L53.812 0L53.812-6.050L54.802-6.050L54.802-4.895L55.011-4.895L54.802-4.664Q54.802-5.379 55.231-5.769Q55.660-6.160 56.419-6.160L56.419-6.160Q57.332-6.160 57.871-5.599Q58.410-5.038 58.410-4.070L58.410-4.070L58.410 0L57.420 0L57.420-3.960Q57.420-4.609 57.074-4.955Q56.727-5.302 56.133-5.302L56.133-5.302Q55.517-5.302 55.160-4.928Q54.802-4.554 54.802-3.850L54.802-3.850L54.802 0ZM62.700 0.110L62.700 0.110Q61.985 0.110 61.452-0.176Q60.918-0.462 60.627-0.984Q60.335-1.507 60.335-2.200L60.335-2.200L60.335-3.850Q60.335-4.554 60.627-5.071Q60.918-5.588 61.452-5.874Q61.985-6.160 62.700-6.160L62.700-6.160Q63.415-6.160 63.949-5.874Q64.482-5.588 64.774-5.071Q65.065-4.554 65.065-3.850L65.065-3.850L65.065-2.783L61.303-2.783L61.303-2.200Q61.303-1.485 61.666-1.105Q62.029-0.726 62.700-0.726L62.700-0.726Q63.272-0.726 63.624-0.929Q63.976-1.133 64.053-1.540L64.053-1.540L65.043-1.540Q64.944-0.781 64.300-0.335Q63.657 0.110 62.700 0.110ZM64.174-3.531L64.097-3.443L64.097-3.850Q64.097-4.565 63.740-4.950Q63.382-5.335 62.700-5.335L62.700-5.335Q62.029-5.335 61.666-4.950Q61.303-4.565 61.303-3.850L61.303-3.850L61.303-3.531L64.174-3.531ZM69.575 0.088L69.113 0.088Q68.497 0.088 68.040-0.104Q67.584-0.297 67.314-0.649Q67.045-1.001 66.990-1.485L66.990-1.485L67.980-1.485Q68.046-1.166 68.338-0.979Q68.629-0.792 69.113-0.792L69.113-0.792L69.575-0.792Q70.158-0.792 70.444-1.028Q70.730-1.265 70.730-1.661L70.730-1.661Q70.730-2.046 70.472-2.272Q70.213-2.497 69.707-2.574L69.707-2.574L68.893-2.706Q68.002-2.860 67.567-3.261Q67.133-3.663 67.133-4.433L67.133-4.433Q67.133-5.247 67.650-5.692Q68.167-6.138 69.201-6.138L69.201-6.138L69.619-6.138Q70.488-6.138 71.016-5.731Q71.544-5.324 71.654-4.631L71.654-4.631L70.664-4.631Q70.598-4.917 70.334-5.087Q70.070-5.258 69.619-5.258L69.619-5.258L69.201-5.258Q68.640-5.258 68.382-5.049Q68.123-4.840 68.123-4.422L68.123-4.422Q68.123-4.048 68.343-3.872Q68.563-3.696 69.036-3.619L69.036-3.619L69.850-3.487Q70.829-3.333 71.275-2.915Q71.720-2.497 71.720-1.705L71.720-1.705Q71.720-0.869 71.186-0.390Q70.653 0.088 69.575 0.088L69.575 0.088ZM78.210 0L76.560 0Q75.779 0 75.344-0.418Q74.910-0.836 74.910-1.595L74.910-1.595L74.910-5.148L73.205-5.148L73.205-6.050L74.910-6.050L74.910-7.755L75.900-7.755L75.900-6.050L78.320-6.050L78.320-5.148L75.900-5.148L75.900-1.595Q75.900-0.902 76.560-0.902L76.560-0.902L78.210-0.902L78.210 0ZM85.305 0L80.135 0L80.135-0.902L82.280-0.902L82.280-5.148L80.410-5.148L80.410-6.050L83.270-6.050L83.270-0.902L85.305-0.902L85.305 0ZM82.665-7.139L82.665-7.139Q82.302-7.139 82.093-7.326Q81.884-7.513 81.884-7.832L81.884-7.832Q81.884-8.162 82.093-8.354Q82.302-8.547 82.665-8.547L82.665-8.547Q83.028-8.547 83.237-8.354Q83.446-8.162 83.446-7.832L83.446-7.832Q83.446-7.513 83.237-7.326Q83.028-7.139 82.665-7.139ZM87.802 0L86.812 0L86.812-6.050L87.802-6.050L87.802-4.895L88.011-4.895L87.802-4.664Q87.802-5.379 88.231-5.769Q88.660-6.160 89.419-6.160L89.419-6.160Q90.332-6.160 90.871-5.599Q91.410-5.038 91.410-4.070L91.410-4.070L91.410 0L90.420 0L90.420-3.960Q90.420-4.609 90.073-4.955Q89.727-5.302 89.133-5.302L89.133-5.302Q88.517-5.302 88.159-4.928Q87.802-4.554 87.802-3.850L87.802-3.850L87.802 0ZM96.085 1.980L94.171 1.980L94.171 1.078L96.096 1.078Q96.558 1.078 96.772 0.869Q96.987 0.660 96.987 0.220L96.987 0.220L96.987-0.550L97.009-1.650L96.811-1.650L96.998-1.815Q96.998-1.155 96.558-0.770Q96.118-0.385 95.381-0.385L95.381-0.385Q94.446-0.385 93.907-0.995Q93.368-1.606 93.368-2.640L93.368-2.640L93.368-3.916Q93.368-4.950 93.907-5.555Q94.446-6.160 95.381-6.160L95.381-6.160Q96.118-6.160 96.558-5.775Q96.998-5.390 96.998-4.730L96.998-4.730L96.811-4.895L96.998-4.895L96.998-6.050L97.977-6.050L97.977 0.220Q97.977 1.034 97.476 1.507Q96.976 1.980 96.085 1.980L96.085 1.980ZM95.678-1.243L95.678-1.243Q96.294-1.243 96.646-1.628Q96.998-2.013 96.998-2.695L96.998-2.695L96.998-3.850Q96.998-4.532 96.646-4.917Q96.294-5.302 95.678-5.302L95.678-5.302Q95.051-5.302 94.704-4.928Q94.358-4.554 94.358-3.850L94.358-3.850L94.358-2.695Q94.358-1.991 94.704-1.617Q95.051-1.243 95.678-1.243ZM109.175 0.088L108.713 0.088Q108.097 0.088 107.640-0.104Q107.184-0.297 106.914-0.649Q106.645-1.001 106.590-1.485L106.590-1.485L107.580-1.485Q107.646-1.166 107.937-0.979Q108.229-0.792 108.713-0.792L108.713-0.792L109.175-0.792Q109.758-0.792 110.044-1.028Q110.330-1.265 110.330-1.661L110.330-1.661Q110.330-2.046 110.071-2.272Q109.813-2.497 109.307-2.574L109.307-2.574L108.493-2.706Q107.602-2.860 107.167-3.261Q106.733-3.663 106.733-4.433L106.733-4.433Q106.733-5.247 107.250-5.692Q107.767-6.138 108.801-6.138L108.801-6.138L109.219-6.138Q110.088-6.138 110.616-5.731Q111.144-5.324 111.254-4.631L111.254-4.631L110.264-4.631Q110.198-4.917 109.934-5.087Q109.670-5.258 109.219-5.258L109.219-5.258L108.801-5.258Q108.240-5.258 107.981-5.049Q107.723-4.840 107.723-4.422L107.723-4.422Q107.723-4.048 107.943-3.872Q108.163-3.696 108.636-3.619L108.636-3.619L109.450-3.487Q110.429-3.333 110.874-2.915Q111.320-2.497 111.320-1.705L111.320-1.705Q111.320-0.869 110.786-0.390Q110.253 0.088 109.175 0.088L109.175 0.088ZM117.810 0L116.160 0Q115.379 0 114.944-0.418Q114.510-0.836 114.510-1.595L114.510-1.595L114.510-5.148L112.805-5.148L112.805-6.050L114.510-6.050L114.510-7.755L115.500-7.755L115.500-6.050L117.920-6.050L117.920-5.148L115.500-5.148L115.500-1.595Q115.500-0.902 116.160-0.902L116.160-0.902L117.810-0.902L117.810 0ZM122.100 0.110L122.100 0.110Q121.385 0.110 120.851-0.176Q120.318-0.462 120.026-0.984Q119.735-1.507 119.735-2.200L119.735-2.200L119.735-3.850Q119.735-4.554 120.026-5.071Q120.318-5.588 120.851-5.874Q121.385-6.160 122.100-6.160L122.100-6.160Q122.815-6.160 123.348-5.874Q123.882-5.588 124.173-5.071Q124.465-4.554 124.465-3.850L124.465-3.850L124.465-2.783L120.703-2.783L120.703-2.200Q120.703-1.485 121.066-1.105Q121.429-0.726 122.100-0.726L122.100-0.726Q122.672-0.726 123.024-0.929Q123.376-1.133 123.453-1.540L123.453-1.540L124.443-1.540Q124.344-0.781 123.700-0.335Q123.057 0.110 122.100 0.110ZM123.574-3.531L123.497-3.443L123.497-3.850Q123.497-4.565 123.139-4.950Q122.782-5.335 122.100-5.335L122.100-5.335Q121.429-5.335 121.066-4.950Q120.703-4.565 120.703-3.850L120.703-3.850L120.703-3.531L123.574-3.531ZM127.402 1.980L126.412 1.980L126.412-6.050L127.402-6.050L127.402-4.895L127.600-4.895L127.402-4.664Q127.402-5.357 127.858-5.758Q128.315-6.160 129.063-6.160L129.063-6.160Q129.976-6.160 130.520-5.560Q131.065-4.961 131.065-3.916L131.065-3.916L131.065-2.145Q131.065-1.452 130.817-0.946Q130.570-0.440 130.124-0.165Q129.679 0.110 129.063 0.110L129.063 0.110Q128.326 0.110 127.864-0.297Q127.402-0.704 127.402-1.386L127.402-1.386L127.600-1.155L127.380-1.155L127.402 0.220L127.402 1.980ZM128.733-0.748L128.733-0.748Q129.360-0.748 129.717-1.122Q130.075-1.496 130.075-2.200L130.075-2.200L130.075-3.850Q130.075-4.554 129.717-4.928Q129.360-5.302 128.733-5.302L128.733-5.302Q128.128-5.302 127.765-4.917Q127.402-4.532 127.402-3.850L127.402-3.850L127.402-2.200Q127.402-1.518 127.765-1.133Q128.128-0.748 128.733-0.748ZM143.935 0.341L143.935 1.320Q142.373 0.935 141.504-0.198Q140.635-1.331 140.635-2.970L140.635-2.970L140.635-4.950Q140.635-6.028 141.036-6.902Q141.438-7.777 142.180-8.382Q142.923-8.987 143.935-9.240L143.935-9.240L143.935-8.305Q143.231-8.140 142.714-7.672Q142.197-7.205 141.911-6.512Q141.625-5.819 141.625-4.950L141.625-4.950L141.625-2.970Q141.625-2.123 141.905-1.430Q142.186-0.737 142.708-0.280Q143.231 0.176 143.935 0.341L143.935 0.341ZM148.775 0.088L148.313 0.088Q147.697 0.088 147.240-0.104Q146.784-0.297 146.514-0.649Q146.245-1.001 146.190-1.485L146.190-1.485L147.180-1.485Q147.246-1.166 147.537-0.979Q147.829-0.792 148.313-0.792L148.313-0.792L148.775-0.792Q149.358-0.792 149.644-1.028Q149.930-1.265 149.930-1.661L149.930-1.661Q149.930-2.046 149.671-2.272Q149.413-2.497 148.907-2.574L148.907-2.574L148.093-2.706Q147.202-2.860 146.767-3.261Q146.333-3.663 146.333-4.433L146.333-4.433Q146.333-5.247 146.850-5.692Q147.367-6.138 148.401-6.138L148.401-6.138L148.819-6.138Q149.688-6.138 150.216-5.731Q150.744-5.324 150.854-4.631L150.854-4.631L149.864-4.631Q149.798-4.917 149.534-5.087Q149.270-5.258 148.819-5.258L148.819-5.258L148.401-5.258Q147.840-5.258 147.581-5.049Q147.323-4.840 147.323-4.422L147.323-4.422Q147.323-4.048 147.543-3.872Q147.763-3.696 148.236-3.619L148.236-3.619L149.050-3.487Q150.029-3.333 150.474-2.915Q150.920-2.497 150.920-1.705L150.920-1.705Q150.920-0.869 150.386-0.390Q149.853 0.088 148.775 0.088L148.775 0.088ZM157.410 0L155.760 0Q154.979 0 154.544-0.418Q154.110-0.836 154.110-1.595L154.110-1.595L154.110-5.148L152.405-5.148L152.405-6.050L154.110-6.050L154.110-7.755L155.100-7.755L155.100-6.050L157.520-6.050L157.520-5.148L155.100-5.148L155.100-1.595Q155.100-0.902 155.760-0.902L155.760-0.902L157.410-0.902L157.410 0ZM160.611 0L159.621 0L159.621-6.050L160.589-6.050L160.589-4.895L160.820-4.895L160.501-4.180Q160.501-5.159 160.924-5.659Q161.348-6.160 162.184-6.160L162.184-6.160Q163.141-6.160 163.707-5.560Q164.274-4.961 164.274-3.938L164.274-3.938L164.274-3.575L163.284-3.575L163.284-3.850Q163.284-4.565 162.937-4.944Q162.591-5.324 161.953-5.324L161.953-5.324Q161.326-5.324 160.968-4.939Q160.611-4.554 160.611-3.850L160.611-3.850L160.611 0ZM168.300 0.088L168.300 0.088Q167.574 0.088 167.046-0.187Q166.518-0.462 166.226-0.984Q165.935-1.507 165.935-2.222L165.935-2.222L165.935-3.828Q165.935-4.554 166.226-5.071Q166.518-5.588 167.046-5.863Q167.574-6.138 168.300-6.138L168.300-6.138Q169.026-6.138 169.554-5.863Q170.082-5.588 170.373-5.071Q170.665-4.554 170.665-3.839L170.665-3.839L170.665-2.222Q170.665-1.507 170.373-0.984Q170.082-0.462 169.554-0.187Q169.026 0.088 168.300 0.088ZM168.300-0.792L168.300-0.792Q168.949-0.792 169.312-1.155Q169.675-1.518 169.675-2.222L169.675-2.222L169.675-3.828Q169.675-4.532 169.312-4.895Q168.949-5.258 168.300-5.258L168.300-5.258Q167.662-5.258 167.293-4.895Q166.925-4.532 166.925-3.828L166.925-3.828L166.925-2.222Q166.925-1.518 167.293-1.155Q167.662-0.792 168.300-0.792ZM173.635 0L172.645 0L172.645-8.030L173.635-8.030L173.635-3.553L174.801-3.553L176.561-6.050L177.694-6.050L175.659-3.168L177.727 0L176.572 0L174.812-2.695L173.635-2.695L173.635 0ZM181.500 0.110L181.500 0.110Q180.785 0.110 180.251-0.176Q179.718-0.462 179.426-0.984Q179.135-1.507 179.135-2.200L179.135-2.200L179.135-3.850Q179.135-4.554 179.426-5.071Q179.718-5.588 180.251-5.874Q180.785-6.160 181.500-6.160L181.500-6.160Q182.215-6.160 182.748-5.874Q183.282-5.588 183.573-5.071Q183.865-4.554 183.865-3.850L183.865-3.850L183.865-2.783L180.103-2.783L180.103-2.200Q180.103-1.485 180.466-1.105Q180.829-0.726 181.500-0.726L181.500-0.726Q182.072-0.726 182.424-0.929Q182.776-1.133 182.853-1.540L182.853-1.540L183.843-1.540Q183.744-0.781 183.100-0.335Q182.457 0.110 181.500 0.110ZM182.974-3.531L182.897-3.443L182.897-3.850Q182.897-4.565 182.539-4.950Q182.182-5.335 181.500-5.335L181.500-5.335Q180.829-5.335 180.466-4.950Q180.103-4.565 180.103-3.850L180.103-3.850L180.103-3.531L182.974-3.531ZM195.184-1.045L194.216-1.045L194.216-3.190L192.115-3.190L192.115-4.070L194.216-4.070L194.216-6.215L195.184-6.215L195.184-4.070L197.285-4.070L197.285-3.190L195.184-3.190L195.184-1.045ZM208.285 1.980L206.371 1.980L206.371 1.078L208.296 1.078Q208.758 1.078 208.972 0.869Q209.187 0.660 209.187 0.220L209.187 0.220L209.187-0.550L209.209-1.650L209.011-1.650L209.198-1.815Q209.198-1.155 208.758-0.770Q208.318-0.385 207.581-0.385L207.581-0.385Q206.646-0.385 206.107-0.995Q205.568-1.606 205.568-2.640L205.568-2.640L205.568-3.916Q205.568-4.950 206.107-5.555Q206.646-6.160 207.581-6.160L207.581-6.160Q208.318-6.160 208.758-5.775Q209.198-5.390 209.198-4.730L209.198-4.730L209.011-4.895L209.198-4.895L209.198-6.050L210.177-6.050L210.177 0.220Q210.177 1.034 209.676 1.507Q209.176 1.980 208.285 1.980L208.285 1.980ZM207.878-1.243L207.878-1.243Q208.494-1.243 208.846-1.628Q209.198-2.013 209.198-2.695L209.198-2.695L209.198-3.850Q209.198-4.532 208.846-4.917Q208.494-5.302 207.878-5.302L207.878-5.302Q207.251-5.302 206.904-4.928Q206.558-4.554 206.558-3.850L206.558-3.850L206.558-2.695Q206.558-1.991 206.904-1.617Q207.251-1.243 207.878-1.243ZM213.972 0.110L213.972 0.110Q213.015 0.110 212.465-0.380Q211.915-0.869 211.915-1.705L211.915-1.705Q211.915-2.552 212.465-3.036Q213.015-3.520 213.950-3.520L213.950-3.520L215.820-3.520L215.820-4.125Q215.820-4.686 215.484-4.988Q215.149-5.291 214.533-5.291L214.533-5.291Q213.994-5.291 213.631-5.066Q213.268-4.840 213.213-4.455L213.213-4.455L212.223-4.455Q212.322-5.236 212.960-5.698Q213.598-6.160 214.555-6.160L214.555-6.160Q215.600-6.160 216.205-5.621Q216.810-5.082 216.810-4.158L216.810-4.158L216.810 0L215.842 0L215.842-1.155L215.677-1.155L215.842-1.320Q215.842-0.660 215.330-0.275Q214.819 0.110 213.972 0.110ZM214.214-0.671L214.214-0.671Q214.918-0.671 215.369-1.023Q215.820-1.375 215.820-1.925L215.820-1.925L215.820-2.783L213.972-2.783Q213.477-2.783 213.191-2.508Q212.905-2.233 212.905-1.760L212.905-1.760Q212.905-1.254 213.251-0.962Q213.598-0.671 214.214-0.671ZM219.802 1.980L218.812 1.980L218.812-6.050L219.802-6.050L219.802-4.895L220.000-4.895L219.802-4.664Q219.802-5.357 220.258-5.758Q220.715-6.160 221.463-6.160L221.463-6.160Q222.376-6.160 222.920-5.560Q223.465-4.961 223.465-3.916L223.465-3.916L223.465-2.145Q223.465-1.452 223.217-0.946Q222.970-0.440 222.524-0.165Q222.079 0.110 221.463 0.110L221.463 0.110Q220.726 0.110 220.264-0.297Q219.802-0.704 219.802-1.386L219.802-1.386L220.000-1.155L219.780-1.155L219.802 0.220L219.802 1.980ZM221.133-0.748L221.133-0.748Q221.760-0.748 222.117-1.122Q222.475-1.496 222.475-2.200L222.475-2.200L222.475-3.850Q222.475-4.554 222.117-4.928Q221.760-5.302 221.133-5.302L221.133-5.302Q220.528-5.302 220.165-4.917Q219.802-4.532 219.802-3.850L219.802-3.850L219.802-2.200Q219.802-1.518 220.165-1.133Q220.528-0.748 221.133-0.748ZM225.665 1.320L225.665 1.320L225.665 0.341Q226.380 0.176 226.897-0.280Q227.414-0.737 227.694-1.430Q227.975-2.123 227.975-2.970L227.975-2.970L227.975-4.950Q227.975-5.819 227.689-6.512Q227.403-7.205 226.886-7.672Q226.369-8.140 225.665-8.305L225.665-8.305L225.665-9.240Q226.688-8.987 227.425-8.382Q228.162-7.777 228.563-6.902Q228.965-6.028 228.965-4.950L228.965-4.950L228.965-2.970Q228.965-1.331 228.096-0.198Q227.227 0.935 225.665 1.320Z"></path></g></svg>