<svg xmlns="http://www.w3.org/2000/svg" viewBox="0 0 600 240" width="600" height="240"><rect fill="#F2EEE5" x="0" y="0" width="600" height="240"></rect><g transform="translate(52,45) scale(0.63559)"><rect fill="#1F1E1C" x="0" y="0" width="236" height="16"></rect><rect fill="#1F1E1C" x="0" y="0" width="16" height="236"></rect><rect fill="#1F1E1C" x="0" y="220" width="236" height="16"></rect><rect fill="#1F1E1C" x="32" y="32" width="172" height="16"></rect><rect fill="#1F1E1C" x="32" y="32" width="16" height="172"></rect><rect fill="#1F1E1C" x="32" y="188" width="172" height="16"></rect><rect fill="#1F1E1C" x="64" y="64" width="108" height="16"></rect><rect fill="#1F1E1C" x="64" y="64" width="16" height="108"></rect><rect fill="#1F1E1C" x="64" y="156" width="108" height="16"></rect><rect fill="#7A2E28" x="96" y="96" width="44" height="16"></rect><rect fill="#7A2E28" x="96" y="96" width="16" height="44"></rect><rect fill="#7A2E28" x="96" y="124" width="44" height="16"></rect></g><g transform="translate(258,118)"><path fill="#1F1E1C" d="M5.980-16.100L5.980-16.100Q5.980-19.872 7.659-22.701Q9.338-25.530 12.052-27.140Q14.766-28.750 17.940-28.750L17.940-28.750Q20.240-28.750 22.149-28.152Q24.058-27.554 25.622-26.473Q27.186-25.392 28.290-23.966L28.290-23.966L28.290-29.118Q26.266-30.912 23.874-31.786Q21.482-32.660 17.940-32.660L17.940-32.660Q14.582-32.660 11.661-31.441Q8.740-30.222 6.532-27.991Q4.324-25.760 3.082-22.724Q1.840-19.688 1.840-16.100L1.840-16.100Q1.840-12.512 3.082-9.476Q4.324-6.440 6.532-4.209Q8.740-1.978 11.661-0.759Q14.582 0.460 17.940 0.460L17.940 0.460Q21.482 0.460 23.874-0.414Q26.266-1.288 28.290-3.082L28.290-3.082L28.290-8.234Q27.186-6.808 25.622-5.727Q24.058-4.646 22.149-4.048Q20.240-3.450 17.940-3.450L17.940-3.450Q14.766-3.450 12.052-5.060Q9.338-6.670 7.659-9.522Q5.980-12.374 5.980-16.100ZM52.532-13.340L51.152-9.660L68.172-9.660L66.792-13.340L52.532-13.340ZM54.142-12.144L59.570-24.932L65.090-11.960L65.458-11.040L70.150 0L74.520 0L59.570-33.810L44.620 0L48.990 0L53.774-11.316L54.142-12.144ZM92.506-9.752L92.506-9.752L89.378-7.636Q90.436-5.520 92.115-3.657Q93.794-1.794 96.025-0.667Q98.256 0.460 100.878 0.460L100.878 0.460Q102.810 0.460 104.581-0.184Q106.352-0.828 107.755-2.024Q109.158-3.220 109.963-4.922Q110.768-6.624 110.768-8.740L110.768-8.740Q110.768-10.948 109.986-12.535Q109.204-14.122 107.985-15.249Q106.766-16.376 105.340-17.112Q103.914-17.848 102.626-18.308L102.626-18.308Q99.820-19.274 98.187-20.263Q96.554-21.252 95.864-22.379Q95.174-23.506 95.174-24.840L95.174-24.840Q95.174-26.404 96.370-27.669Q97.566-28.934 100.188-28.934L100.188-28.934Q102.074-28.934 103.385-28.198Q104.696-27.462 105.616-26.312Q106.536-25.162 107.134-23.966L107.134-23.966L110.492-25.898Q109.710-27.600 108.330-29.141Q106.950-30.682 104.995-31.671Q103.040-32.660 100.418-32.660L100.418-32.660Q97.704-32.660 95.588-31.579Q93.472-30.498 92.276-28.612Q91.080-26.726 91.080-24.334L91.080-24.334Q91.080-22.126 91.931-20.608Q92.782-19.090 94.116-18.055Q95.450-17.020 96.922-16.353Q98.394-15.686 99.590-15.272L99.590-15.272Q101.430-14.628 103.063-13.823Q104.696-13.018 105.708-11.730Q106.720-10.442 106.720-8.280L106.720-8.280Q106.720-6.072 105.156-4.646Q103.592-3.220 101.016-3.220L101.016-3.220Q99.084-3.220 97.566-4.048Q96.048-4.876 94.829-6.348Q93.610-7.820 92.506-9.752ZM131.698-16.100L131.698-16.100Q131.698-19.872 133.377-22.701Q135.056-25.530 137.770-27.140Q140.484-28.750 143.658-28.750L143.658-28.750Q145.958-28.750 147.867-28.152Q149.776-27.554 151.340-26.473Q152.904-25.392 154.008-23.966L154.008-23.966L154.008-29.118Q151.984-30.912 149.592-31.786Q147.200-32.660 143.658-32.660L143.658-32.660Q140.300-32.660 137.379-31.441Q134.458-30.222 132.250-27.991Q130.042-25.760 128.800-22.724Q127.558-19.688 127.558-16.100L127.558-16.100Q127.558-12.512 128.800-9.476Q130.042-6.440 132.250-4.209Q134.458-1.978 137.379-0.759Q140.300 0.460 143.658 0.460L143.658 0.460Q147.200 0.460 149.592-0.414Q151.984-1.288 154.008-3.082L154.008-3.082L154.008-8.234Q152.904-6.808 151.340-5.727Q149.776-4.646 147.867-4.048Q145.958-3.450 143.658-3.450L143.658-3.450Q140.484-3.450 137.770-5.060Q135.056-6.670 133.377-9.522Q131.698-12.374 131.698-16.100ZM178.250-13.340L176.870-9.660L193.890-9.660L192.510-13.340L178.250-13.340ZM179.860-12.144L185.288-24.932L190.808-11.960L191.176-11.040L195.868 0L200.238 0L185.288-33.810L170.338 0L174.708 0L179.492-11.316L179.860-12.144ZM220.938-32.200L217.028-32.200L217.028 0L220.938 0L220.938-32.200ZM219.190 0L226.688 0Q231.380 0 235.014-2.024Q238.648-4.048 240.718-7.659Q242.788-11.270 242.788-16.100L242.788-16.100Q242.788-20.930 240.718-24.541Q238.648-28.152 235.014-30.176Q231.380-32.200 226.688-32.200L226.688-32.200L219.190-32.200L219.190-28.290L226.688-28.290Q229.402-28.290 231.656-27.439Q233.910-26.588 235.520-25.001Q237.130-23.414 238.004-21.160Q238.878-18.906 238.878-16.100L238.878-16.100Q238.878-13.294 238.004-11.040Q237.130-8.786 235.520-7.199Q233.910-5.612 231.656-4.761Q229.402-3.910 226.688-3.910L226.688-3.910L219.190-3.910L219.190 0ZM263.350-3.680L263.350 0L279.588 0L279.588-3.680L263.350-3.680ZM263.350-32.200L263.350-28.520L279.588-28.520L279.588-32.200L263.350-32.200ZM263.350-19.320L263.350-15.640L278.668-15.640L278.668-19.320L263.350-19.320ZM265.098-32.200L261.188-32.200L261.188 0L265.098 0L265.098-32.200Z"></path></g><g transform="translate(260,150)"><path fill="#9A9388" d="M0.096-8.400L0.096-7.092L2.316-7.092L2.316 0L3.732 0L3.732-7.092L5.952-7.092L5.952-8.400L0.096-8.400ZM16.824-8.400L15.204-8.400L13.248-4.812L11.304-8.400L9.684-8.400L12.540-3.528L12.540 0L13.980 0L13.980-3.540L16.824-8.400ZM22.812-8.400L21.396-8.400L21.396 0L22.812 0L22.812-8.400ZM22.236-8.400L22.236-7.152L23.928-7.152Q24.660-7.152 25.104-6.810Q25.548-6.468 25.548-5.796L25.548-5.796Q25.548-5.124 25.104-4.776Q24.660-4.428 23.928-4.428L23.928-4.428L22.236-4.428L22.236-3.180L23.928-3.180Q24.852-3.180 25.524-3.498Q26.196-3.816 26.574-4.404Q26.952-4.992 26.952-5.796L26.952-5.796Q26.952-6.600 26.574-7.182Q26.196-7.764 25.524-8.082Q24.852-8.400 23.928-8.400L23.928-8.400L22.236-8.400ZM32.808-1.248L32.808 0L37.044 0L37.044-1.248L32.808-1.248ZM32.808-8.400L32.808-7.152L37.044-7.152L37.044-8.400L32.808-8.400ZM32.808-5.112L32.808-3.888L36.804-3.888L36.804-5.112L32.808-5.112ZM33.324-8.400L31.932-8.400L31.932 0L33.324 0L33.324-8.400ZM42.936-2.712L42.936-2.712L41.880-1.968Q42.156-1.392 42.630-0.900Q43.104-0.408 43.734-0.114Q44.364 0.180 45.096 0.180L45.096 0.180Q45.636 0.180 46.134 0.006Q46.632-0.168 47.028-0.486Q47.424-0.804 47.658-1.272Q47.892-1.740 47.892-2.328L47.892-2.328Q47.892-2.880 47.700-3.294Q47.508-3.708 47.202-4.008Q46.896-4.308 46.518-4.512Q46.140-4.716 45.756-4.848L45.756-4.848Q45.084-5.088 44.664-5.316Q44.244-5.544 44.046-5.802Q43.848-6.060 43.848-6.384L43.848-6.384Q43.848-6.744 44.124-7.014Q44.400-7.284 44.988-7.284L44.988-7.284Q45.408-7.284 45.726-7.122Q46.044-6.960 46.284-6.690Q46.524-6.420 46.692-6.108L46.692-6.108L47.832-6.756Q47.628-7.200 47.244-7.608Q46.860-8.016 46.308-8.286Q45.756-8.556 45.012-8.556L45.012-8.556Q44.256-8.556 43.662-8.268Q43.068-7.980 42.720-7.470Q42.372-6.960 42.372-6.288L42.372-6.288Q42.372-5.700 42.600-5.286Q42.828-4.872 43.176-4.590Q43.524-4.308 43.908-4.122Q44.292-3.936 44.604-3.828L44.604-3.828Q45.132-3.636 45.540-3.438Q45.948-3.240 46.170-2.958Q46.392-2.676 46.392-2.220L46.392-2.220Q46.392-1.716 46.032-1.404Q45.672-1.092 45.096-1.092L45.096-1.092Q44.628-1.092 44.238-1.296Q43.848-1.500 43.530-1.860Q43.212-2.220 42.936-2.712ZM53.808-1.248L53.808 0L58.044 0L58.044-1.248L53.808-1.248ZM53.808-8.400L53.808-7.152L58.044-7.152L58.044-8.400L53.808-8.400ZM53.808-5.112L53.808-3.888L57.804-3.888L57.804-5.112L53.808-5.112ZM54.324-8.400L52.932-8.400L52.932 0L54.324 0L54.324-8.400ZM62.544-8.400L62.544-7.092L64.764-7.092L64.764 0L66.180 0L66.180-7.092L68.400-7.092L68.400-8.400L62.544-8.400ZM72.192-8.400L72.192-7.092L74.412-7.092L74.412 0L75.828 0L75.828-7.092L78.048-7.092L78.048-8.400L72.192-8.400ZM84.120-8.400L82.680-8.400L82.680 0L84.120 0L84.120-8.400ZM97.104-8.400L95.712-8.400L95.712-2.760L89.580-8.820L89.580 0L90.972 0L90.972-5.640L97.104 0.420L97.104-8.400ZM106.572-4.392L106.572-3.192L109.152-3.192Q109.044-2.772 108.828-2.400Q108.612-2.028 108.288-1.740Q107.964-1.452 107.520-1.296Q107.076-1.140 106.512-1.140L106.512-1.140Q105.684-1.140 105.024-1.524Q104.364-1.908 103.980-2.598Q103.596-3.288 103.596-4.200L103.596-4.200Q103.596-5.124 103.986-5.802Q104.376-6.480 105.042-6.858Q105.708-7.236 106.512-7.236L106.512-7.236Q107.388-7.236 108.006-6.876Q108.624-6.516 108.972-5.916L108.972-5.916L110.124-6.684Q109.752-7.272 109.224-7.686Q108.696-8.100 108.018-8.328Q107.340-8.556 106.512-8.556L106.512-8.556Q105.564-8.556 104.760-8.238Q103.956-7.920 103.356-7.338Q102.756-6.756 102.426-5.958Q102.096-5.160 102.096-4.200L102.096-4.200Q102.096-3.240 102.420-2.436Q102.744-1.632 103.338-1.044Q103.932-0.456 104.736-0.138Q105.540 0.180 106.488 0.180L106.488 0.180Q107.496 0.180 108.276-0.186Q109.056-0.552 109.584-1.188Q110.112-1.824 110.376-2.646Q110.640-3.468 110.616-4.392L110.616-4.392L106.572-4.392ZM123.420-2.712L123.420-2.712L122.364-1.968Q122.640-1.392 123.114-0.900Q123.588-0.408 124.218-0.114Q124.848 0.180 125.580 0.180L125.580 0.180Q126.120 0.180 126.618 0.006Q127.116-0.168 127.512-0.486Q127.908-0.804 128.142-1.272Q128.376-1.740 128.376-2.328L128.376-2.328Q128.376-2.880 128.184-3.294Q127.992-3.708 127.686-4.008Q127.380-4.308 127.002-4.512Q126.624-4.716 126.240-4.848L126.240-4.848Q125.568-5.088 125.148-5.316Q124.728-5.544 124.530-5.802Q124.332-6.060 124.332-6.384L124.332-6.384Q124.332-6.744 124.608-7.014Q124.884-7.284 125.472-7.284L125.472-7.284Q125.892-7.284 126.210-7.122Q126.528-6.960 126.768-6.690Q127.008-6.420 127.176-6.108L127.176-6.108L128.316-6.756Q128.112-7.200 127.728-7.608Q127.344-8.016 126.792-8.286Q126.240-8.556 125.496-8.556L125.496-8.556Q124.740-8.556 124.146-8.268Q123.552-7.980 123.204-7.470Q122.856-6.960 122.856-6.288L122.856-6.288Q122.856-5.700 123.084-5.286Q123.312-4.872 123.660-4.590Q124.008-4.308 124.392-4.122Q124.776-3.936 125.088-3.828L125.088-3.828Q125.616-3.636 126.024-3.438Q126.432-3.240 126.654-2.958Q126.876-2.676 126.876-2.220L126.876-2.220Q126.876-1.716 126.516-1.404Q126.156-1.092 125.580-1.092L125.580-1.092Q125.112-1.092 124.722-1.296Q124.332-1.500 124.014-1.860Q123.696-2.220 123.420-2.712ZM139.656-8.400L138.036-8.400L136.080-4.812L134.136-8.400L132.516-8.400L135.372-3.528L135.372 0L136.812 0L136.812-3.540L139.656-8.400ZM144.780-2.712L144.780-2.712L143.724-1.968Q144-1.392 144.474-0.900Q144.948-0.408 145.578-0.114Q146.208 0.180 146.940 0.180L146.940 0.180Q147.480 0.180 147.978 0.006Q148.476-0.168 148.872-0.486Q149.268-0.804 149.502-1.272Q149.736-1.740 149.736-2.328L149.736-2.328Q149.736-2.880 149.544-3.294Q149.352-3.708 149.046-4.008Q148.740-4.308 148.362-4.512Q147.984-4.716 147.600-4.848L147.600-4.848Q146.928-5.088 146.508-5.316Q146.088-5.544 145.890-5.802Q145.692-6.060 145.692-6.384L145.692-6.384Q145.692-6.744 145.968-7.014Q146.244-7.284 146.832-7.284L146.832-7.284Q147.252-7.284 147.570-7.122Q147.888-6.960 148.128-6.690Q148.368-6.420 148.536-6.108L148.536-6.108L149.676-6.756Q149.472-7.200 149.088-7.608Q148.704-8.016 148.152-8.286Q147.600-8.556 146.856-8.556L146.856-8.556Q146.100-8.556 145.506-8.268Q144.912-7.980 144.564-7.470Q144.216-6.960 144.216-6.288L144.216-6.288Q144.216-5.700 144.444-5.286Q144.672-4.872 145.020-4.590Q145.368-4.308 145.752-4.122Q146.136-3.936 146.448-3.828L146.448-3.828Q146.976-3.636 147.384-3.438Q147.792-3.240 148.014-2.958Q148.236-2.676 148.236-2.220L148.236-2.220Q148.236-1.716 147.876-1.404Q147.516-1.092 146.940-1.092L146.940-1.092Q146.472-1.092 146.082-1.296Q145.692-1.500 145.374-1.860Q145.056-2.220 144.780-2.712ZM153.936-8.400L153.936-7.092L156.156-7.092L156.156 0L157.572 0L157.572-7.092L159.792-7.092L159.792-8.400L153.936-8.400ZM165.300-1.248L165.300 0L169.536 0L169.536-1.248L165.300-1.248ZM165.300-8.400L165.300-7.152L169.536-7.152L169.536-8.400L165.300-8.400ZM165.300-5.112L165.300-3.888L169.296-3.888L169.296-5.112L165.300-5.112ZM165.816-8.400L164.424-8.400L164.424 0L165.816 0L165.816-8.400ZM175.860 0L176.436-5.112L178.992-0.780L181.560-5.112L182.136 0L183.600 0L182.448-8.820L178.992-3.120L175.548-8.820L174.396 0L175.860 0Z"></path></g></svg>