<svg xmlns="http://www.w3.org/2000/svg" viewBox="0 0 560 250" width="560" height="250"><rect fill="#F2EEE5" x="0" y="0" width="560" height="250"></rect><g transform="translate(56,64) scale(0.40678)"><rect fill="#1F1E1C" x="0" y="0" width="236" height="16"></rect><rect fill="#1F1E1C" x="0" y="0" width="16" height="236"></rect><rect fill="#1F1E1C" x="0" y="220" width="236" height="16"></rect><rect fill="#1F1E1C" x="32" y="32" width="172" height="16"></rect><rect fill="#1F1E1C" x="32" y="32" width="16" height="172"></rect><rect fill="#1F1E1C" x="32" y="188" width="172" height="16"></rect><rect fill="#1F1E1C" x="64" y="64" width="108" height="16"></rect><rect fill="#1F1E1C" x="64" y="64" width="16" height="108"></rect><rect fill="#1F1E1C" x="64" y="156" width="108" height="16"></rect><rect fill="#1F1E1C" x="96" y="96" width="44" height="16"></rect><rect fill="#1F1E1C" x="96" y="96" width="16" height="44"></rect><rect fill="#1F1E1C" x="96" y="124" width="44" height="16"></rect></g><g transform="translate(90.8,182)"><path fill="#9A9388" d="M3.157 0L2.057 0L4.334-3.652L4.290-3.685Q4.081-3.377 3.718-3.212Q3.355-3.047 2.904-3.047L2.904-3.047Q2.255-3.047 1.765-3.355Q1.276-3.663 1.012-4.229Q0.748-4.796 0.748-5.555L0.748-5.555Q0.748-6.336 1.067-6.913Q1.386-7.491 1.958-7.815Q2.530-8.140 3.289-8.140L3.289-8.140Q4.059-8.140 4.636-7.815Q5.214-7.491 5.533-6.913Q5.852-6.336 5.852-5.555L5.852-5.555Q5.852-4.950 5.681-4.367Q5.511-3.784 5.170-3.245L5.170-3.245L3.157 0ZM3.300-3.850L3.300-3.850Q4.004-3.850 4.433-4.317Q4.862-4.785 4.862-5.555L4.862-5.555Q4.862-6.325 4.433-6.792Q4.004-7.260 3.300-7.260L3.300-7.260Q2.596-7.260 2.167-6.792Q1.738-6.325 1.738-5.555L1.738-5.555Q1.738-4.785 2.167-4.317Q2.596-3.850 3.300-3.850ZM9.911 0.110L9.911 0.110Q9.141 0.110 8.563-0.214Q7.986-0.539 7.667-1.122Q7.348-1.705 7.348-2.475L7.348-2.475Q7.348-3.080 7.518-3.663Q7.689-4.246 8.030-4.785L8.030-4.785L10.043-8.030L11.143-8.030L8.866-4.378L8.910-4.345Q9.119-4.653 9.482-4.818Q9.845-4.983 10.296-4.983L10.296-4.983Q10.956-4.983 11.440-4.675Q11.924-4.367 12.188-3.806Q12.452-3.245 12.452-2.475L12.452-2.475Q12.452-1.705 12.133-1.122Q11.814-0.539 11.247-0.214Q10.681 0.110 9.911 0.110ZM9.900-0.770L9.900-0.770Q10.604-0.770 11.033-1.237Q11.462-1.705 11.462-2.475L11.462-2.475Q11.462-3.245 11.033-3.712Q10.604-4.180 9.900-4.180L9.900-4.180Q9.196-4.180 8.767-3.712Q8.338-3.245 8.338-2.475L8.338-2.475Q8.338-1.705 8.767-1.237Q9.196-0.770 9.900-0.770ZM15.202 0L14.212 0L14.212-8.030L16.797-8.030Q17.545-8.030 18.095-7.738Q18.645-7.447 18.947-6.919Q19.250-6.391 19.250-5.665L19.250-5.665Q19.250-4.950 18.947-4.417Q18.645-3.883 18.095-3.591Q17.545-3.300 16.797-3.300L16.797-3.300L15.202-3.300L15.202 0ZM15.202-7.139L15.202-4.191L16.797-4.191Q17.446-4.191 17.837-4.592Q18.227-4.994 18.227-5.665L18.227-5.665Q18.227-6.347 17.837-6.743Q17.446-7.139 16.797-7.139L16.797-7.139L15.202-7.139ZM21.340 0L20.240 0L22.550-4.070L20.361-8.030L21.505-8.030L22.748-5.654Q22.847-5.467 22.951-5.252Q23.056-5.038 23.122-4.917L23.122-4.917Q23.177-5.038 23.281-5.252Q23.386-5.467 23.485-5.654L23.485-5.654L24.750-8.030L25.839-8.030L23.650-4.136L25.960 0L24.827 0L23.452-2.552Q23.353-2.739 23.248-2.954Q23.144-3.168 23.089-3.300L23.089-3.300Q23.034-3.168 22.929-2.959Q22.825-2.750 22.726-2.563L22.726-2.563L21.340 0Z"></path></g><g transform="translate(192,112) scale(0.20339)"><rect fill="#1F1E1C" x="0" y="0" width="236" height="16"></rect><rect fill="#1F1E1C" x="0" y="0" width="16" height="236"></rect><rect fill="#1F1E1C" x="0" y="220" width="236" height="16"></rect><rect fill="#1F1E1C" x="32" y="32" width="172" height="16"></rect><rect fill="#1F1E1C" x="32" y="32" width="16" height="172"></rect><rect fill="#1F1E1C" x="32" y="188" width="172" height="16"></rect><rect fill="#1F1E1C" x="64" y="64" width="108" height="16"></rect><rect fill="#1F1E1C" x="64" y="64" width="16" height="108"></rect><rect fill="#1F1E1C" x="64" y="156" width="108" height="16"></rect><rect fill="#1F1E1C" x="96" y="96" width="44" height="16"></rect><rect fill="#1F1E1C" x="96" y="96" width="16" height="44"></rect><rect fill="#1F1E1C" x="96" y="124" width="44" height="16"></rect></g><g transform="translate(202.8,182)"><path fill="#9A9388" d="M5.500 0L4.510 0L4.510-1.760L0.880-1.760L0.880-3.311L4.059-8.030L5.137-8.030L1.870-3.102L1.870-2.662L4.510-2.662L4.510-4.620L5.500-4.620L5.500 0ZM9.900 0.110L9.900 0.110Q9.163 0.110 8.618-0.148Q8.074-0.407 7.777-0.891Q7.480-1.375 7.480-2.024L7.480-2.024Q7.480-2.739 7.870-3.256Q8.261-3.773 9.108-4.180L9.108-4.180L10.175-4.697Q10.659-4.928 10.923-5.302Q11.187-5.676 11.187-6.127L11.187-6.127Q11.187-6.655 10.840-6.963Q10.494-7.271 9.900-7.271L9.900-7.271Q9.306-7.271 8.959-6.957Q8.613-6.644 8.613-6.116L8.613-6.116Q8.613-5.676 8.871-5.302Q9.130-4.928 9.581-4.708L9.581-4.708L10.648-4.202Q11.528-3.795 11.924-3.272Q12.320-2.750 12.320-2.024L12.320-2.024Q12.320-1.045 11.665-0.467Q11.011 0.110 9.900 0.110ZM9.900-0.770L9.900-0.770Q10.571-0.770 10.961-1.116Q11.352-1.463 11.352-2.046L11.352-2.046Q11.352-2.519 11.099-2.904Q10.846-3.289 10.373-3.520L10.373-3.520L9.317-4.037Q8.437-4.466 8.041-4.961Q7.645-5.456 7.645-6.149L7.645-6.149Q7.645-6.765 7.920-7.216Q8.195-7.667 8.701-7.909Q9.207-8.151 9.900-8.151L9.900-8.151Q10.593-8.151 11.099-7.909Q11.605-7.667 11.880-7.216Q12.155-6.765 12.155-6.149L12.155-6.149Q12.155-5.456 11.759-4.966Q11.363-4.477 10.450-4.026L10.450-4.026L9.394-3.509Q8.943-3.289 8.695-2.909Q8.448-2.530 8.448-2.068L8.448-2.068Q8.448-1.474 8.838-1.122Q9.229-0.770 9.900-0.770ZM15.202 0L14.212 0L14.212-8.030L16.797-8.030Q17.545-8.030 18.095-7.738Q18.645-7.447 18.947-6.919Q19.250-6.391 19.250-5.665L19.250-5.665Q19.250-4.950 18.947-4.417Q18.645-3.883 18.095-3.591Q17.545-3.300 16.797-3.300L16.797-3.300L15.202-3.300L15.202 0ZM15.202-7.139L15.202-4.191L16.797-4.191Q17.446-4.191 17.837-4.592Q18.227-4.994 18.227-5.665L18.227-5.665Q18.227-6.347 17.837-6.743Q17.446-7.139 16.797-7.139L16.797-7.139L15.202-7.139ZM21.340 0L20.240 0L22.550-4.070L20.361-8.030L21.505-8.030L22.748-5.654Q22.847-5.467 22.951-5.252Q23.056-5.038 23.122-4.917L23.122-4.917Q23.177-5.038 23.281-5.252Q23.386-5.467 23.485-5.654L23.485-5.654L24.750-8.030L25.839-8.030L23.650-4.136L25.960 0L24.827 0L23.452-2.552Q23.353-2.739 23.248-2.954Q23.144-3.168 23.089-3.300L23.089-3.300Q23.034-3.168 22.929-2.959Q22.825-2.750 22.726-2.563L22.726-2.563L21.340 0Z"></path></g><g transform="translate(280,136) scale(0.10169)"><rect fill="#1F1E1C" x="0" y="0" width="236" height="16"></rect><rect fill="#1F1E1C" x="0" y="0" width="16" height="236"></rect><rect fill="#1F1E1C" x="0" y="220" width="236" height="16"></rect><rect fill="#1F1E1C" x="32" y="32" width="172" height="16"></rect><rect fill="#1F1E1C" x="32" y="32" width="16" height="172"></rect><rect fill="#1F1E1C" x="32" y="188" width="172" height="16"></rect><rect fill="#1F1E1C" x="64" y="64" width="108" height="16"></rect><rect fill="#1F1E1C" x="64" y="64" width="16" height="108"></rect><rect fill="#1F1E1C" x="64" y="156" width="108" height="16"></rect><rect fill="#1F1E1C" x="96" y="96" width="44" height="16"></rect><rect fill="#1F1E1C" x="96" y="96" width="16" height="44"></rect><rect fill="#1F1E1C" x="96" y="124" width="44" height="16"></rect></g><g transform="translate(265.6,182)"><path fill="#7A2E28" d="M5.786 0L1.012 0L1.012-1.012L3.465-3.619Q4.092-4.290 4.378-4.813Q4.664-5.335 4.664-5.819L4.664-5.819Q4.664-6.490 4.295-6.875Q3.927-7.260 3.289-7.260L3.289-7.260Q2.585-7.260 2.183-6.864Q1.782-6.468 1.782-5.775L1.782-5.775L0.792-5.775Q0.814-6.501 1.127-7.034Q1.441-7.568 1.996-7.854Q2.552-8.140 3.289-8.140L3.289-8.140Q4.015-8.140 4.548-7.859Q5.082-7.579 5.368-7.062Q5.654-6.545 5.654-5.830L5.654-5.830Q5.654-5.148 5.291-4.477Q4.928-3.806 4.103-2.948L4.103-2.948L2.123-0.902L5.786-0.902L5.786 0ZM12.100 0L11.110 0L11.110-1.760L7.480-1.760L7.480-3.311L10.659-8.030L11.737-8.030L8.470-3.102L8.470-2.662L11.110-2.662L11.110-4.620L12.100-4.620L12.100 0ZM15.202 0L14.212 0L14.212-8.030L16.797-8.030Q17.545-8.030 18.095-7.738Q18.645-7.447 18.947-6.919Q19.250-6.391 19.250-5.665L19.250-5.665Q19.250-4.950 18.947-4.417Q18.645-3.883 18.095-3.591Q17.545-3.300 16.797-3.300L16.797-3.300L15.202-3.300L15.202 0ZM15.202-7.139L15.202-4.191L16.797-4.191Q17.446-4.191 17.837-4.592Q18.227-4.994 18.227-5.665L18.227-5.665Q18.227-6.347 17.837-6.743Q17.446-7.139 16.797-7.139L16.797-7.139L15.202-7.139ZM21.340 0L20.240 0L22.550-4.070L20.361-8.030L21.505-8.030L22.748-5.654Q22.847-5.467 22.951-5.252Q23.056-5.038 23.122-4.917L23.122-4.917Q23.177-5.038 23.281-5.252Q23.386-5.467 23.485-5.654L23.485-5.654L24.750-8.030L25.839-8.030L23.650-4.136L25.960 0L24.827 0L23.452-2.552Q23.353-2.739 23.248-2.954Q23.144-3.168 23.089-3.300L23.089-3.300Q23.034-3.168 22.929-2.959Q22.825-2.750 22.726-2.563L22.726-2.563L21.340 0ZM34.804 0L33.836 0L33.836-8.030L35.134-8.030L35.970-5.434Q36.091-5.082 36.190-4.736Q36.289-4.389 36.333-4.202L36.333-4.202Q36.388-4.389 36.476-4.736Q36.564-5.082 36.674-5.445L36.674-5.445L37.466-8.030L38.764-8.030L38.764 0L37.796 0L37.796-2.915Q37.796-3.399 37.829-4.015Q37.862-4.631 37.917-5.274Q37.972-5.918 38.032-6.506Q38.093-7.095 38.137-7.535L38.137-7.535L36.839-3.520L35.794-3.520L34.485-7.535Q34.540-7.106 34.595-6.539Q34.650-5.973 34.694-5.340Q34.738-4.708 34.771-4.081Q34.804-3.454 34.804-2.915L34.804-2.915L34.804 0ZM45.045 0L40.755 0L40.755-0.902L42.394-0.902L42.394-7.128L40.755-7.128L40.755-8.030L45.045-8.030L45.045-7.128L43.406-7.128L43.406-0.902L45.045-0.902L45.045 0ZM48.147 0L47.190 0L47.190-8.030L48.510-8.030L50.963-1.155Q50.941-1.430 50.913-1.831Q50.886-2.233 50.870-2.678Q50.853-3.124 50.853-3.520L50.853-3.520L50.853-8.030L51.810-8.030L51.810 0L50.490 0L48.048-6.875Q48.070-6.611 48.092-6.209Q48.114-5.808 48.131-5.362Q48.147-4.917 48.147-4.510L48.147-4.510L48.147 0Z"></path></g><g transform="translate(368,144)"><rect fill="#1F1E1C" x="0" y="0" width="16" height="3"></rect><rect fill="#1F1E1C" x="0" y="13" width="16" height="3"></rect><rect fill="#1F1E1C" x="0" y="0" width="3" height="16"></rect><rect fill="#1F1E1C" x="13" y="0" width="3" height="16"></rect><rect fill="#1F1E1C" x="4" y="6.5" width="8" height="3"></rect></g><g transform="translate(362.8,182)"><path fill="#9A9388" d="M5.940 0L0.990 0L0.990-0.902L3.168-0.902L3.168-7.205L0.990-5.577L0.990-6.677L2.805-8.030L4.158-8.030L4.158-0.902L5.940-0.902L5.940 0ZM9.911 0.110L9.911 0.110Q9.141 0.110 8.563-0.214Q7.986-0.539 7.667-1.122Q7.348-1.705 7.348-2.475L7.348-2.475Q7.348-3.080 7.518-3.663Q7.689-4.246 8.030-4.785L8.030-4.785L10.043-8.030L11.143-8.030L8.866-4.378L8.910-4.345Q9.119-4.653 9.482-4.818Q9.845-4.983 10.296-4.983L10.296-4.983Q10.956-4.983 11.440-4.675Q11.924-4.367 12.188-3.806Q12.452-3.245 12.452-2.475L12.452-2.475Q12.452-1.705 12.133-1.122Q11.814-0.539 11.247-0.214Q10.681 0.110 9.911 0.110ZM9.900-0.770L9.900-0.770Q10.604-0.770 11.033-1.237Q11.462-1.705 11.462-2.475L11.462-2.475Q11.462-3.245 11.033-3.712Q10.604-4.180 9.900-4.180L9.900-4.180Q9.196-4.180 8.767-3.712Q8.338-3.245 8.338-2.475L8.338-2.475Q8.338-1.705 8.767-1.237Q9.196-0.770 9.900-0.770ZM15.202 0L14.212 0L14.212-8.030L16.797-8.030Q17.545-8.030 18.095-7.738Q18.645-7.447 18.947-6.919Q19.250-6.391 19.250-5.665L19.250-5.665Q19.250-4.950 18.947-4.417Q18.645-3.883 18.095-3.591Q17.545-3.300 16.797-3.300L16.797-3.300L15.202-3.300L15.202 0ZM15.202-7.139L15.202-4.191L16.797-4.191Q17.446-4.191 17.837-4.592Q18.227-4.994 18.227-5.665L18.227-5.665Q18.227-6.347 17.837-6.743Q17.446-7.139 16.797-7.139L16.797-7.139L15.202-7.139ZM21.340 0L20.240 0L22.550-4.070L20.361-8.030L21.505-8.030L22.748-5.654Q22.847-5.467 22.951-5.252Q23.056-5.038 23.122-4.917L23.122-4.917Q23.177-5.038 23.281-5.252Q23.386-5.467 23.485-5.654L23.485-5.654L24.750-8.030L25.839-8.030L23.650-4.136L25.960 0L24.827 0L23.452-2.552Q23.353-2.739 23.248-2.954Q23.144-3.168 23.089-3.300L23.089-3.300Q23.034-3.168 22.929-2.959Q22.825-2.750 22.726-2.563L22.726-2.563L21.340 0Z"></path></g><g transform="translate(56,52)"><path fill="#9A9388" d="M1.968 0L0.912 0L0.912-8.760L2.328-8.760L3.240-5.928Q3.372-5.544 3.480-5.166Q3.588-4.788 3.636-4.584L3.636-4.584Q3.696-4.788 3.792-5.166Q3.888-5.544 4.008-5.940L4.008-5.940L4.872-8.760L6.288-8.760L6.288 0L5.232 0L5.232-3.180Q5.232-3.708 5.268-4.380Q5.304-5.052 5.364-5.754Q5.424-6.456 5.490-7.098Q5.556-7.740 5.604-8.220L5.604-8.220L4.188-3.840L3.048-3.840L1.620-8.220Q1.680-7.752 1.740-7.134Q1.800-6.516 1.848-5.826Q1.896-5.136 1.932-4.452Q1.968-3.768 1.968-3.180L1.968-3.180L1.968 0ZM14.140 0L9.460 0L9.460-0.984L11.248-0.984L11.248-7.776L9.460-7.776L9.460-8.760L14.140-8.760L14.140-7.776L12.352-7.776L12.352-0.984L14.140-0.984L14.140 0ZM18.524 0L17.480 0L17.480-8.760L18.920-8.760L21.596-1.260Q21.572-1.560 21.542-1.998Q21.512-2.436 21.494-2.922Q21.476-3.408 21.476-3.840L21.476-3.840L21.476-8.760L22.520-8.760L22.520 0L21.080 0L18.416-7.500Q18.440-7.212 18.464-6.774Q18.488-6.336 18.506-5.850Q18.524-5.364 18.524-4.920L18.524-4.920L18.524 0ZM30.540 0L25.860 0L25.860-0.984L27.648-0.984L27.648-7.776L25.860-7.776L25.860-8.760L30.540-8.760L30.540-7.776L28.752-7.776L28.752-0.984L30.540-0.984L30.540 0ZM34.768 0L33.712 0L33.712-8.760L35.128-8.760L36.040-5.928Q36.172-5.544 36.280-5.166Q36.388-4.788 36.436-4.584L36.436-4.584Q36.496-4.788 36.592-5.166Q36.688-5.544 36.808-5.940L36.808-5.940L37.672-8.760L39.088-8.760L39.088 0L38.032 0L38.032-3.180Q38.032-3.708 38.068-4.380Q38.104-5.052 38.164-5.754Q38.224-6.456 38.290-7.098Q38.356-7.740 38.404-8.220L38.404-8.220L36.988-3.840L35.848-3.840L34.420-8.220Q34.480-7.752 34.540-7.134Q34.600-6.516 34.648-5.826Q34.696-5.136 34.732-4.452Q34.768-3.768 34.768-3.180L34.768-3.180L34.768 0ZM44.600 0.120L44.600 0.120Q43.376 0.120 42.728-0.558Q42.080-1.236 42.080-2.400L42.080-2.400L42.080-8.760L43.160-8.760L43.160-2.400Q43.160-1.680 43.514-1.260Q43.868-0.840 44.600-0.840L44.600-0.840Q45.320-0.840 45.680-1.260Q46.040-1.680 46.040-2.400L46.040-2.400L46.040-8.760L47.120-8.760L47.120-2.400Q47.120-1.224 46.478-0.552Q45.836 0.120 44.600 0.120ZM51.168 0L50.112 0L50.112-8.760L51.528-8.760L52.440-5.928Q52.572-5.544 52.680-5.166Q52.788-4.788 52.836-4.584L52.836-4.584Q52.896-4.788 52.992-5.166Q53.088-5.544 53.208-5.940L53.208-5.940L54.072-8.760L55.488-8.760L55.488 0L54.432 0L54.432-3.180Q54.432-3.708 54.468-4.380Q54.504-5.052 54.564-5.754Q54.624-6.456 54.690-7.098Q54.756-7.740 54.804-8.220L54.804-8.220L53.388-3.840L52.248-3.840L50.820-8.220Q50.880-7.752 50.940-7.134Q51-6.516 51.048-5.826Q51.096-5.136 51.132-4.452Q51.168-3.768 51.168-3.180L51.168-3.180L51.168 0ZM69.248 0.120L69.248 0.120Q68.384 0.120 67.766-0.168Q67.148-0.456 66.812-0.996Q66.476-1.536 66.464-2.280L66.464-2.280L67.544-2.280Q67.544-1.620 67.994-1.236Q68.444-0.852 69.248-0.852L69.248-0.852Q70.004-0.852 70.430-1.224Q70.856-1.596 70.856-2.256L70.856-2.256Q70.856-2.784 70.574-3.180Q70.292-3.576 69.764-3.732L69.764-3.732L68.576-4.104Q67.676-4.380 67.190-5.028Q66.704-5.676 66.704-6.552L66.704-6.552Q66.704-7.260 67.022-7.782Q67.340-8.304 67.916-8.598Q68.492-8.892 69.272-8.892L69.272-8.892Q70.424-8.892 71.120-8.250Q71.816-7.608 71.828-6.540L71.828-6.540L70.748-6.540Q70.748-7.188 70.358-7.554Q69.968-7.920 69.260-7.920L69.260-7.920Q68.564-7.920 68.174-7.584Q67.784-7.248 67.784-6.648L67.784-6.648Q67.784-6.108 68.072-5.712Q68.360-5.316 68.900-5.148L68.900-5.148L70.100-4.764Q70.976-4.488 71.456-3.828Q71.936-3.168 71.936-2.280L71.936-2.280Q71.936-1.560 71.600-1.020Q71.264-0.480 70.658-0.180Q70.052 0.120 69.248 0.120ZM79.740 0L75.060 0L75.060-0.984L76.848-0.984L76.848-7.776L75.060-7.776L75.060-8.760L79.740-8.760L79.740-7.776L77.952-7.776L77.952-0.984L79.740-0.984L79.740 0ZM88.180 0L83.020 0L83.020-1.080L86.968-7.776L83.080-7.776L83.080-8.760L88.060-8.760L88.060-7.680L84.112-0.984L88.180-0.984L88.180 0ZM96.440 0L91.400 0L91.400-8.760L96.440-8.760L96.440-7.776L92.468-7.776L92.468-5.064L96.020-5.064L96.020-4.092L92.468-4.092L92.468-0.984L96.440-0.984L96.440 0Z"></path></g><g transform="translate(56,74)"><path fill="#9A9388" d="M2.035 0L1.045 0L1.045-8.041L5.775-8.041L5.775-7.139L2.013-7.139L2.013-4.466L5.489-4.466L5.489-3.564L2.035-3.564L2.035 0ZM9.889 0.110L9.889 0.110Q8.844 0.110 8.217-0.511Q7.590-1.133 7.590-2.200L7.590-2.200L7.590-6.050L8.580-6.050L8.580-2.200Q8.580-1.518 8.932-1.138Q9.284-0.759 9.889-0.759L9.889-0.759Q10.505-0.759 10.863-1.138Q11.220-1.518 11.220-2.200L11.220-2.200L11.220-6.050L12.210-6.050L12.210-2.200Q12.210-1.133 11.572-0.511Q10.934 0.110 9.889 0.110ZM19.250 0L17.325 0Q16.797 0 16.401-0.209Q16.005-0.418 15.785-0.803Q15.565-1.188 15.565-1.705L15.565-1.705L15.565-7.128L13.530-7.128L13.530-8.030L16.555-8.030L16.555-1.705Q16.555-1.331 16.764-1.116Q16.973-0.902 17.325-0.902L17.325-0.902L19.250-0.902L19.250 0ZM25.850 0L23.925 0Q23.397 0 23.001-0.209Q22.605-0.418 22.385-0.803Q22.165-1.188 22.165-1.705L22.165-1.705L22.165-7.128L20.130-7.128L20.130-8.030L23.155-8.030L23.155-1.705Q23.155-1.331 23.364-1.116Q23.573-0.902 23.925-0.902L23.925-0.902L25.850-0.902L25.850 0ZM34.639 0L33.726 0L33.726-6.050L34.595-6.050L34.595-5.324L34.793-5.324L34.639-5.060Q34.639-5.566 34.908-5.863Q35.178-6.160 35.640-6.160L35.640-6.160Q36.146-6.160 36.421-5.786Q36.696-5.412 36.696-4.730L36.696-4.730L36.399-5.324L36.861-5.324L36.652-5.060Q36.652-5.566 36.932-5.863Q37.213-6.160 37.675-6.160L37.675-6.160Q38.247-6.160 38.560-5.731Q38.874-5.302 38.874-4.598L38.874-4.598L38.874 0L37.961 0L37.961-4.609Q37.961-4.983 37.801-5.192Q37.642-5.401 37.334-5.401L37.334-5.401Q37.037-5.401 36.867-5.197Q36.696-4.994 36.696-4.620L36.696-4.620L36.696 0L35.904 0L35.904-4.609Q35.904-4.994 35.733-5.197Q35.563-5.401 35.255-5.401L35.255-5.401Q34.947-5.401 34.793-5.197Q34.639-4.994 34.639-4.620L34.639-4.620L34.639 0ZM42.372 0.110L42.372 0.110Q41.415 0.110 40.865-0.380Q40.315-0.869 40.315-1.705L40.315-1.705Q40.315-2.552 40.865-3.036Q41.415-3.520 42.350-3.520L42.350-3.520L44.220-3.520L44.220-4.125Q44.220-4.686 43.885-4.988Q43.549-5.291 42.933-5.291L42.933-5.291Q42.394-5.291 42.031-5.066Q41.668-4.840 41.613-4.455L41.613-4.455L40.623-4.455Q40.722-5.236 41.360-5.698Q41.998-6.160 42.955-6.160L42.955-6.160Q44-6.160 44.605-5.621Q45.210-5.082 45.210-4.158L45.210-4.158L45.210 0L44.242 0L44.242-1.155L44.077-1.155L44.242-1.320Q44.242-0.660 43.730-0.275Q43.219 0.110 42.372 0.110ZM42.614-0.671L42.614-0.671Q43.318-0.671 43.769-1.023Q44.220-1.375 44.220-1.925L44.220-1.925L44.220-2.783L42.372-2.783Q41.877-2.783 41.591-2.508Q41.305-2.233 41.305-1.760L41.305-1.760Q41.305-1.254 41.651-0.962Q41.998-0.671 42.614-0.671ZM48.411 0L47.421 0L47.421-6.050L48.389-6.050L48.389-4.895L48.620-4.895L48.301-4.180Q48.301-5.159 48.725-5.659Q49.148-6.160 49.984-6.160L49.984-6.160Q50.941-6.160 51.508-5.560Q52.074-4.961 52.074-3.938L52.074-3.938L52.074-3.575L51.084-3.575L51.084-3.850Q51.084-4.565 50.738-4.944Q50.391-5.324 49.753-5.324L49.753-5.324Q49.126-5.324 48.769-4.939Q48.411-4.554 48.411-3.850L48.411-3.850L48.411 0ZM54.835 0L53.845 0L53.845-8.030L54.835-8.030L54.835-3.553L56.001-3.553L57.761-6.050L58.894-6.050L56.859-3.168L58.927 0L57.772 0L56.012-2.695L54.835-2.695L54.835 0ZM68.002 0L67.012 0L67.012-8.030L68.002-8.030L68.002-6.050L68.002-4.895L68.211-4.895L68.002-4.664Q68.002-5.379 68.431-5.769Q68.860-6.160 69.619-6.160L69.619-6.160Q70.532-6.160 71.071-5.599Q71.610-5.038 71.610-4.070L71.610-4.070L71.610 0L70.620 0L70.620-3.960Q70.620-4.609 70.273-4.966Q69.927-5.324 69.333-5.324L69.333-5.324Q68.717-5.324 68.359-4.939Q68.002-4.554 68.002-3.850L68.002-3.850L68.002 0ZM75.900 0.088L75.900 0.088Q75.174 0.088 74.646-0.187Q74.118-0.462 73.826-0.984Q73.535-1.507 73.535-2.222L73.535-2.222L73.535-3.828Q73.535-4.554 73.826-5.071Q74.118-5.588 74.646-5.863Q75.174-6.138 75.900-6.138L75.900-6.138Q76.626-6.138 77.154-5.863Q77.682-5.588 77.974-5.071Q78.265-4.554 78.265-3.839L78.265-3.839L78.265-2.222Q78.265-1.507 77.974-0.984Q77.682-0.462 77.154-0.187Q76.626 0.088 75.900 0.088ZM75.900-0.792L75.900-0.792Q76.549-0.792 76.912-1.155Q77.275-1.518 77.275-2.222L77.275-2.222L77.275-3.828Q77.275-4.532 76.912-4.895Q76.549-5.258 75.900-5.258L75.900-5.258Q75.262-5.258 74.893-4.895Q74.525-4.532 74.525-3.828L74.525-3.828L74.525-2.222Q74.525-1.518 74.893-1.155Q75.262-0.792 75.900-0.792ZM85.250 0L83.325 0Q82.797 0 82.401-0.209Q82.005-0.418 81.785-0.803Q81.565-1.188 81.565-1.705L81.565-1.705L81.565-7.128L79.530-7.128L79.530-8.030L82.555-8.030L82.555-1.705Q82.555-1.331 82.764-1.116Q82.973-0.902 83.325-0.902L83.325-0.902L85.250-0.902L85.250 0ZM88.748 0.110L88.748 0.110Q87.846 0.110 87.290-0.495Q86.735-1.100 86.735-2.134L86.735-2.134L86.735-3.905Q86.735-4.950 87.285-5.555Q87.835-6.160 88.748-6.160L88.748-6.160Q89.496-6.160 89.947-5.753Q90.398-5.346 90.398-4.664L90.398-4.664L90.200-4.895L90.420-4.895L90.398-6.270L90.398-8.030L91.388-8.030L91.388 0L90.398 0L90.398-1.155L90.200-1.155L90.398-1.386Q90.398-0.693 89.947-0.291Q89.496 0.110 88.748 0.110ZM89.078-0.748L89.078-0.748Q89.694-0.748 90.046-1.133Q90.398-1.518 90.398-2.200L90.398-2.200L90.398-3.850Q90.398-4.532 90.046-4.917Q89.694-5.302 89.078-5.302L89.078-5.302Q88.451-5.302 88.088-4.928Q87.725-4.554 87.725-3.850L87.725-3.850L87.725-2.200Q87.725-1.496 88.088-1.122Q88.451-0.748 89.078-0.748ZM95.975 0.088L95.513 0.088Q94.897 0.088 94.440-0.104Q93.984-0.297 93.714-0.649Q93.445-1.001 93.390-1.485L93.390-1.485L94.380-1.485Q94.446-1.166 94.737-0.979Q95.029-0.792 95.513-0.792L95.513-0.792L95.975-0.792Q96.558-0.792 96.844-1.028Q97.130-1.265 97.130-1.661L97.130-1.661Q97.130-2.046 96.871-2.272Q96.613-2.497 96.107-2.574L96.107-2.574L95.293-2.706Q94.402-2.860 93.967-3.261Q93.533-3.663 93.533-4.433L93.533-4.433Q93.533-5.247 94.050-5.692Q94.567-6.138 95.601-6.138L95.601-6.138L96.019-6.138Q96.888-6.138 97.416-5.731Q97.944-5.324 98.054-4.631L98.054-4.631L97.064-4.631Q96.998-4.917 96.734-5.087Q96.470-5.258 96.019-5.258L96.019-5.258L95.601-5.258Q95.040-5.258 94.781-5.049Q94.523-4.840 94.523-4.422L94.523-4.422Q94.523-4.048 94.743-3.872Q94.963-3.696 95.436-3.619L95.436-3.619L96.250-3.487Q97.229-3.333 97.674-2.915Q98.120-2.497 98.120-1.705L98.120-1.705Q98.120-0.869 97.586-0.390Q97.053 0.088 95.975 0.088L95.975 0.088ZM111.210 0L109.560 0Q108.779 0 108.344-0.418Q107.910-0.836 107.910-1.595L107.910-1.595L107.910-5.148L106.205-5.148L106.205-6.050L107.910-6.050L107.910-7.755L108.900-7.755L108.900-6.050L111.320-6.050L111.320-5.148L108.900-5.148L108.900-1.595Q108.900-0.902 109.560-0.902L109.560-0.902L111.210-0.902L111.210 0ZM115.500 0.088L115.500 0.088Q114.774 0.088 114.246-0.187Q113.718-0.462 113.426-0.984Q113.135-1.507 113.135-2.222L113.135-2.222L113.135-3.828Q113.135-4.554 113.426-5.071Q113.718-5.588 114.246-5.863Q114.774-6.138 115.500-6.138L115.500-6.138Q116.226-6.138 116.754-5.863Q117.282-5.588 117.573-5.071Q117.865-4.554 117.865-3.839L117.865-3.839L117.865-2.222Q117.865-1.507 117.573-0.984Q117.282-0.462 116.754-0.187Q116.226 0.088 115.500 0.088ZM115.500-0.792L115.500-0.792Q116.149-0.792 116.512-1.155Q116.875-1.518 116.875-2.222L116.875-2.222L116.875-3.828Q116.875-4.532 116.512-4.895Q116.149-5.258 115.500-5.258L115.500-5.258Q114.862-5.258 114.493-4.895Q114.125-4.532 114.125-3.828L114.125-3.828L114.125-2.222Q114.125-1.518 114.493-1.155Q114.862-0.792 115.500-0.792ZM131.186 0L126.412 0L126.412-1.012L128.865-3.619Q129.492-4.290 129.778-4.813Q130.064-5.335 130.064-5.819L130.064-5.819Q130.064-6.490 129.695-6.875Q129.327-7.260 128.689-7.260L128.689-7.260Q127.985-7.260 127.583-6.864Q127.182-6.468 127.182-5.775L127.182-5.775L126.192-5.775Q126.214-6.501 126.527-7.034Q126.841-7.568 127.396-7.854Q127.952-8.140 128.689-8.140L128.689-8.140Q129.415-8.140 129.948-7.859Q130.482-7.579 130.768-7.062Q131.054-6.545 131.054-5.830L131.054-5.830Q131.054-5.148 130.691-4.477Q130.328-3.806 129.503-2.948L129.503-2.948L127.523-0.902L131.186-0.902L131.186 0ZM137.500 0L136.510 0L136.510-1.760L132.880-1.760L132.880-3.311L136.059-8.030L137.137-8.030L133.870-3.102L133.870-2.662L136.510-2.662L136.510-4.620L137.500-4.620L137.500 0ZM147.202 1.980L146.212 1.980L146.212-6.050L147.202-6.050L147.202-4.895L147.400-4.895L147.202-4.664Q147.202-5.357 147.658-5.758Q148.115-6.160 148.863-6.160L148.863-6.160Q149.776-6.160 150.320-5.560Q150.865-4.961 150.865-3.916L150.865-3.916L150.865-2.145Q150.865-1.452 150.617-0.946Q150.370-0.440 149.924-0.165Q149.479 0.110 148.863 0.110L148.863 0.110Q148.126 0.110 147.664-0.297Q147.202-0.704 147.202-1.386L147.202-1.386L147.400-1.155L147.180-1.155L147.202 0.220L147.202 1.980ZM148.533-0.748L148.533-0.748Q149.160-0.748 149.517-1.122Q149.875-1.496 149.875-2.200L149.875-2.200L149.875-3.850Q149.875-4.554 149.517-4.928Q149.160-5.302 148.533-5.302L148.533-5.302Q147.928-5.302 147.565-4.917Q147.202-4.532 147.202-3.850L147.202-3.850L147.202-2.200Q147.202-1.518 147.565-1.133Q147.928-0.748 148.533-0.748ZM153.505 0L152.350 0L154.495-3.113L152.482-6.050L153.648-6.050L154.847-4.180Q154.924-4.059 154.995-3.916Q155.067-3.773 155.111-3.685L155.111-3.685Q155.144-3.773 155.215-3.916Q155.287-4.059 155.364-4.180L155.364-4.180L156.574-6.050L157.729-6.050L155.716-3.102L157.850 0L156.684 0L155.386-1.980Q155.309-2.101 155.237-2.260Q155.166-2.420 155.111-2.519L155.111-2.519Q155.067-2.420 154.984-2.260Q154.902-2.101 154.814-1.980L154.814-1.980L153.505 0ZM168.300-2.860L168.300-2.860Q167.882-2.860 167.634-3.102Q167.387-3.344 167.387-3.751L167.387-3.751Q167.387-4.180 167.634-4.433Q167.882-4.686 168.300-4.686L168.300-4.686Q168.718-4.686 168.965-4.433Q169.213-4.180 169.213-3.751L169.213-3.751Q169.213-3.344 168.965-3.102Q168.718-2.860 168.300-2.860ZM181.610 0L180.620 0L180.620-4.543L178.860-4.543L178.860-5.445L180.620-5.445L180.620-6.490Q180.620-7.205 181.071-7.617Q181.522-8.030 182.314-8.030L182.314-8.030L184.085-8.030L184.085-7.128L182.314-7.128Q181.973-7.128 181.791-6.968Q181.610-6.809 181.610-6.490L181.610-6.490L181.610-5.445L184.085-5.445L184.085-4.543L181.610-4.543L181.610 0ZM187.572 0.110L187.572 0.110Q186.615 0.110 186.065-0.380Q185.515-0.869 185.515-1.705L185.515-1.705Q185.515-2.552 186.065-3.036Q186.615-3.520 187.550-3.520L187.550-3.520L189.420-3.520L189.420-4.125Q189.420-4.686 189.084-4.988Q188.749-5.291 188.133-5.291L188.133-5.291Q187.594-5.291 187.231-5.066Q186.868-4.840 186.813-4.455L186.813-4.455L185.823-4.455Q185.922-5.236 186.560-5.698Q187.198-6.160 188.155-6.160L188.155-6.160Q189.200-6.160 189.805-5.621Q190.410-5.082 190.410-4.158L190.410-4.158L190.410 0L189.442 0L189.442-1.155L189.277-1.155L189.442-1.320Q189.442-0.660 188.930-0.275Q188.419 0.110 187.572 0.110ZM187.814-0.671L187.814-0.671Q188.518-0.671 188.969-1.023Q189.420-1.375 189.420-1.925L189.420-1.925L189.420-2.783L187.572-2.783Q187.077-2.783 186.791-2.508Q186.505-2.233 186.505-1.760L186.505-1.760Q186.505-1.254 186.851-0.962Q187.198-0.671 187.814-0.671ZM195.371 0L194.029 0L192.005-6.050L193.017-6.050L194.359-1.980Q194.480-1.617 194.579-1.281Q194.678-0.946 194.722-0.759L194.722-0.759Q194.777-0.946 194.876-1.281Q194.975-1.617 195.085-1.980L195.085-1.980L196.394-6.050L197.395-6.050L195.371 0ZM204.105 0L198.935 0L198.935-0.902L201.080-0.902L201.080-5.148L199.210-5.148L199.210-6.050L202.070-6.050L202.070-0.902L204.105-0.902L204.105 0ZM201.465-7.139L201.465-7.139Q201.102-7.139 200.893-7.326Q200.684-7.513 200.684-7.832L200.684-7.832Q200.684-8.162 200.893-8.354Q201.102-8.547 201.465-8.547L201.465-8.547Q201.828-8.547 202.037-8.354Q202.246-8.162 202.246-7.832L202.246-7.832Q202.246-7.513 202.037-7.326Q201.828-7.139 201.465-7.139ZM207.944 0.110L207.944 0.110Q207.218 0.110 206.673-0.165Q206.129-0.440 205.832-0.962Q205.535-1.485 205.535-2.200L205.535-2.200L205.535-3.850Q205.535-4.576 205.832-5.093Q206.129-5.610 206.673-5.885Q207.218-6.160 207.944-6.160L207.944-6.160Q208.989-6.160 209.627-5.599Q210.265-5.038 210.298-4.070L210.298-4.070L209.308-4.070Q209.275-4.653 208.917-4.966Q208.560-5.280 207.944-5.280L207.944-5.280Q207.295-5.280 206.910-4.911Q206.525-4.543 206.525-3.861L206.525-3.861L206.525-2.200Q206.525-1.518 206.910-1.144Q207.295-0.770 207.944-0.770L207.944-0.770Q208.560-0.770 208.917-1.089Q209.275-1.408 209.308-1.980L209.308-1.980L210.298-1.980Q210.265-1.012 209.627-0.451Q208.989 0.110 207.944 0.110ZM214.500 0.088L214.500 0.088Q213.774 0.088 213.246-0.187Q212.718-0.462 212.426-0.984Q212.135-1.507 212.135-2.222L212.135-2.222L212.135-3.828Q212.135-4.554 212.426-5.071Q212.718-5.588 213.246-5.863Q213.774-6.138 214.500-6.138L214.500-6.138Q215.226-6.138 215.754-5.863Q216.282-5.588 216.573-5.071Q216.865-4.554 216.865-3.839L216.865-3.839L216.865-2.222Q216.865-1.507 216.573-0.984Q216.282-0.462 215.754-0.187Q215.226 0.088 214.500 0.088ZM214.500-0.792L214.500-0.792Q215.149-0.792 215.512-1.155Q215.875-1.518 215.875-2.222L215.875-2.222L215.875-3.828Q215.875-4.532 215.512-4.895Q215.149-5.258 214.500-5.258L214.500-5.258Q213.862-5.258 213.493-4.895Q213.125-4.532 213.125-3.828L213.125-3.828L213.125-2.222Q213.125-1.518 213.493-1.155Q213.862-0.792 214.500-0.792ZM219.802 0L218.812 0L218.812-6.050L219.802-6.050L219.802-4.895L220.011-4.895L219.802-4.664Q219.802-5.379 220.231-5.769Q220.660-6.160 221.419-6.160L221.419-6.160Q222.332-6.160 222.871-5.599Q223.410-5.038 223.410-4.070L223.410-4.070L223.410 0L222.420 0L222.420-3.960Q222.420-4.609 222.073-4.955Q221.727-5.302 221.133-5.302L221.133-5.302Q220.517-5.302 220.159-4.928Q219.802-4.554 219.802-3.850L219.802-3.850L219.802 0ZM233.772 0.110L233.772 0.110Q232.815 0.110 232.265-0.380Q231.715-0.869 231.715-1.705L231.715-1.705Q231.715-2.552 232.265-3.036Q232.815-3.520 233.750-3.520L233.750-3.520L235.620-3.520L235.620-4.125Q235.620-4.686 235.284-4.988Q234.949-5.291 234.333-5.291L234.333-5.291Q233.794-5.291 233.431-5.066Q233.068-4.840 233.013-4.455L233.013-4.455L232.023-4.455Q232.122-5.236 232.760-5.698Q233.398-6.160 234.355-6.160L234.355-6.160Q235.400-6.160 236.005-5.621Q236.610-5.082 236.610-4.158L236.610-4.158L236.610 0L235.642 0L235.642-1.155L235.477-1.155L235.642-1.320Q235.642-0.660 235.130-0.275Q234.619 0.110 233.772 0.110ZM234.014-0.671L234.014-0.671Q234.718-0.671 235.169-1.023Q235.620-1.375 235.620-1.925L235.620-1.925L235.620-2.783L233.772-2.783Q233.277-2.783 232.991-2.508Q232.705-2.233 232.705-1.760L232.705-1.760Q232.705-1.254 233.051-0.962Q233.398-0.671 234.014-0.671ZM243.210 0L241.560 0Q240.779 0 240.344-0.418Q239.910-0.836 239.910-1.595L239.910-1.595L239.910-5.148L238.205-5.148L238.205-6.050L239.910-6.050L239.910-7.755L240.900-7.755L240.900-6.050L243.320-6.050L243.320-5.148L240.900-5.148L240.900-1.595Q240.900-0.902 241.560-0.902L241.560-0.902L243.210-0.902L243.210 0ZM256.740 0L251.790 0L251.790-0.902L253.968-0.902L253.968-7.205L251.790-5.577L251.790-6.677L253.605-8.030L254.958-8.030L254.958-0.902L256.740-0.902L256.740 0ZM260.711 0.110L260.711 0.110Q259.941 0.110 259.363-0.214Q258.786-0.539 258.467-1.122Q258.148-1.705 258.148-2.475L258.148-2.475Q258.148-3.080 258.318-3.663Q258.489-4.246 258.830-4.785L258.830-4.785L260.843-8.030L261.943-8.030L259.666-4.378L259.710-4.345Q259.919-4.653 260.282-4.818Q260.645-4.983 261.096-4.983L261.096-4.983Q261.756-4.983 262.240-4.675Q262.724-4.367 262.988-3.806Q263.252-3.245 263.252-2.475L263.252-2.475Q263.252-1.705 262.933-1.122Q262.614-0.539 262.047-0.214Q261.481 0.110 260.711 0.110ZM260.700-0.770L260.700-0.770Q261.404-0.770 261.833-1.237Q262.262-1.705 262.262-2.475L262.262-2.475Q262.262-3.245 261.833-3.712Q261.404-4.180 260.700-4.180L260.700-4.180Q259.996-4.180 259.567-3.712Q259.138-3.245 259.138-2.475L259.138-2.475Q259.138-1.705 259.567-1.237Q259.996-0.770 260.700-0.770ZM272.602 1.980L271.612 1.980L271.612-6.050L272.602-6.050L272.602-4.895L272.800-4.895L272.602-4.664Q272.602-5.357 273.058-5.758Q273.515-6.160 274.263-6.160L274.263-6.160Q275.176-6.160 275.720-5.560Q276.265-4.961 276.265-3.916L276.265-3.916L276.265-2.145Q276.265-1.452 276.017-0.946Q275.770-0.440 275.324-0.165Q274.879 0.110 274.263 0.110L274.263 0.110Q273.526 0.110 273.064-0.297Q272.602-0.704 272.602-1.386L272.602-1.386L272.800-1.155L272.580-1.155L272.602 0.220L272.602 1.980ZM273.933-0.748L273.933-0.748Q274.560-0.748 274.917-1.122Q275.275-1.496 275.275-2.200L275.275-2.200L275.275-3.850Q275.275-4.554 274.917-4.928Q274.560-5.302 273.933-5.302L273.933-5.302Q273.328-5.302 272.965-4.917Q272.602-4.532 272.602-3.850L272.602-3.850L272.602-2.200Q272.602-1.518 272.965-1.133Q273.328-0.748 273.933-0.748ZM278.905 0L277.750 0L279.895-3.113L277.882-6.050L279.048-6.050L280.247-4.180Q280.324-4.059 280.395-3.916Q280.467-3.773 280.511-3.685L280.511-3.685Q280.544-3.773 280.615-3.916Q280.687-4.059 280.764-4.180L280.764-4.180L281.974-6.050L283.129-6.050L281.116-3.102L283.250 0L282.084 0L280.786-1.980Q280.709-2.101 280.637-2.260Q280.566-2.420 280.511-2.519L280.511-2.519Q280.467-2.420 280.384-2.260Q280.302-2.101 280.214-1.980L280.214-1.980L278.905 0Z"></path></g></svg>