<svg xmlns="http://www.w3.org/2000/svg" viewBox="0 0 360 150" width="360" height="150"><g transform="translate(43.33,74)"><path fill="#EDE9E0" d="M5.460-14.700L5.460-14.700Q5.460-18.144 6.993-20.727Q8.526-23.310 11.004-24.780Q13.482-26.250 16.380-26.250L16.380-26.250Q18.480-26.250 20.223-25.704Q21.966-25.158 23.394-24.171Q24.822-23.184 25.830-21.882L25.830-21.882L25.830-26.586Q23.982-28.224 21.798-29.022Q19.614-29.820 16.380-29.820L16.380-29.820Q13.314-29.820 10.647-28.707Q7.980-27.594 5.964-25.557Q3.948-23.520 2.814-20.748Q1.680-17.976 1.680-14.700L1.680-14.700Q1.680-11.424 2.814-8.652Q3.948-5.880 5.964-3.843Q7.980-1.806 10.647-0.693Q13.314 0.420 16.380 0.420L16.380 0.420Q19.614 0.420 21.798-0.378Q23.982-1.176 25.830-2.814L25.830-2.814L25.830-7.518Q24.822-6.216 23.394-5.229Q21.966-4.242 20.223-3.696Q18.480-3.150 16.380-3.150L16.380-3.150Q13.482-3.150 11.004-4.620Q8.526-6.090 6.993-8.694Q5.460-11.298 5.460-14.700ZM50.484-12.180L49.224-8.820L64.764-8.820L63.504-12.180L50.484-12.180ZM51.954-11.088L56.910-22.764L61.950-10.920L62.286-10.080L66.570 0L70.560 0L56.910-30.870L43.260 0L47.250 0L51.618-10.332L51.954-11.088ZM89.502-8.904L89.502-8.904L86.646-6.972Q87.612-5.040 89.145-3.339Q90.678-1.638 92.715-0.609Q94.752 0.420 97.146 0.420L97.146 0.420Q98.910 0.420 100.527-0.168Q102.144-0.756 103.425-1.848Q104.706-2.940 105.441-4.494Q106.176-6.048 106.176-7.980L106.176-7.980Q106.176-9.996 105.462-11.445Q104.748-12.894 103.635-13.923Q102.522-14.952 101.220-15.624Q99.918-16.296 98.742-16.716L98.742-16.716Q96.180-17.598 94.689-18.501Q93.198-19.404 92.568-20.433Q91.938-21.462 91.938-22.680L91.938-22.680Q91.938-24.108 93.030-25.263Q94.122-26.418 96.516-26.418L96.516-26.418Q98.238-26.418 99.435-25.746Q100.632-25.074 101.472-24.024Q102.312-22.974 102.858-21.882L102.858-21.882L105.924-23.646Q105.210-25.200 103.950-26.607Q102.690-28.014 100.905-28.917Q99.120-29.820 96.726-29.820L96.726-29.820Q94.248-29.820 92.316-28.833Q90.384-27.846 89.292-26.124Q88.200-24.402 88.200-22.218L88.200-22.218Q88.200-20.202 88.977-18.816Q89.754-17.430 90.972-16.485Q92.190-15.540 93.534-14.931Q94.878-14.322 95.970-13.944L95.970-13.944Q97.650-13.356 99.141-12.621Q100.632-11.886 101.556-10.710Q102.480-9.534 102.480-7.560L102.480-7.560Q102.480-5.544 101.052-4.242Q99.624-2.940 97.272-2.940L97.272-2.940Q95.508-2.940 94.122-3.696Q92.736-4.452 91.623-5.796Q90.510-7.140 89.502-8.904ZM127.806-14.700L127.806-14.700Q127.806-18.144 129.339-20.727Q130.872-23.310 133.350-24.780Q135.828-26.250 138.726-26.250L138.726-26.250Q140.826-26.250 142.569-25.704Q144.312-25.158 145.740-24.171Q147.168-23.184 148.176-21.882L148.176-21.882L148.176-26.586Q146.328-28.224 144.144-29.022Q141.960-29.820 138.726-29.820L138.726-29.820Q135.660-29.820 132.993-28.707Q130.326-27.594 128.310-25.557Q126.294-23.520 125.160-20.748Q124.026-17.976 124.026-14.700L124.026-14.700Q124.026-11.424 125.160-8.652Q126.294-5.880 128.310-3.843Q130.326-1.806 132.993-0.693Q135.660 0.420 138.726 0.420L138.726 0.420Q141.960 0.420 144.144-0.378Q146.328-1.176 148.176-2.814L148.176-2.814L148.176-7.518Q147.168-6.216 145.740-5.229Q144.312-4.242 142.569-3.696Q140.826-3.150 138.726-3.150L138.726-3.150Q135.828-3.150 133.350-4.620Q130.872-6.090 129.339-8.694Q127.806-11.298 127.806-14.700ZM172.830-12.180L171.570-8.820L187.110-8.820L185.850-12.180L172.830-12.180ZM174.300-11.088L179.256-22.764L184.296-10.920L184.632-10.080L188.916 0L192.906 0L179.256-30.870L165.606 0L169.596 0L173.964-10.332L174.300-11.088ZM214.326-29.400L210.756-29.400L210.756 0L214.326 0L214.326-29.400ZM212.730 0L219.576 0Q223.860 0 227.178-1.848Q230.496-3.696 232.386-6.993Q234.276-10.290 234.276-14.700L234.276-14.700Q234.276-19.110 232.386-22.407Q230.496-25.704 227.178-27.552Q223.860-29.400 219.576-29.400L219.576-29.400L212.730-29.400L212.730-25.830L219.576-25.830Q222.054-25.830 224.112-25.053Q226.170-24.276 227.640-22.827Q229.110-21.378 229.908-19.320Q230.706-17.262 230.706-14.700L230.706-14.700Q230.706-12.138 229.908-10.080Q229.110-8.022 227.640-6.573Q226.170-5.124 224.112-4.347Q222.054-3.570 219.576-3.570L219.576-3.570L212.730-3.570L212.730 0ZM255.570-3.360L255.570 0L270.396 0L270.396-3.360L255.570-3.360ZM255.570-29.400L255.570-26.040L270.396-26.040L270.396-29.400L255.570-29.400ZM255.570-17.640L255.570-14.280L269.556-14.280L269.556-17.640L255.570-17.640ZM257.166-29.400L253.596-29.400L253.596 0L257.166 0L257.166-29.400Z"></path></g><g transform="translate(83.89,104)"><path fill="#7A7469" d="M0.096-8.400L0.096-7.092L2.316-7.092L2.316 0L3.732 0L3.732-7.092L5.952-7.092L5.952-8.400L0.096-8.400ZM17.304-8.400L15.684-8.400L13.728-4.812L11.784-8.400L10.164-8.400L13.020-3.528L13.020 0L14.460 0L14.460-3.540L17.304-8.400ZM23.772-8.400L22.356-8.400L22.356 0L23.772 0L23.772-8.400ZM23.196-8.400L23.196-7.152L24.888-7.152Q25.620-7.152 26.064-6.810Q26.508-6.468 26.508-5.796L26.508-5.796Q26.508-5.124 26.064-4.776Q25.620-4.428 24.888-4.428L24.888-4.428L23.196-4.428L23.196-3.180L24.888-3.180Q25.812-3.180 26.484-3.498Q27.156-3.816 27.534-4.404Q27.912-4.992 27.912-5.796L27.912-5.796Q27.912-6.600 27.534-7.182Q27.156-7.764 26.484-8.082Q25.812-8.400 24.888-8.400L24.888-8.400L23.196-8.400ZM34.248-1.248L34.248 0L38.484 0L38.484-1.248L34.248-1.248ZM34.248-8.400L34.248-7.152L38.484-7.152L38.484-8.400L34.248-8.400ZM34.248-5.112L34.248-3.888L38.244-3.888L38.244-5.112L34.248-5.112ZM34.764-8.400L33.372-8.400L33.372 0L34.764 0L34.764-8.400ZM44.856-2.712L44.856-2.712L43.800-1.968Q44.076-1.392 44.550-0.900Q45.024-0.408 45.654-0.114Q46.284 0.180 47.016 0.180L47.016 0.180Q47.556 0.180 48.054 0.006Q48.552-0.168 48.948-0.486Q49.344-0.804 49.578-1.272Q49.812-1.740 49.812-2.328L49.812-2.328Q49.812-2.880 49.620-3.294Q49.428-3.708 49.122-4.008Q48.816-4.308 48.438-4.512Q48.060-4.716 47.676-4.848L47.676-4.848Q47.004-5.088 46.584-5.316Q46.164-5.544 45.966-5.802Q45.768-6.060 45.768-6.384L45.768-6.384Q45.768-6.744 46.044-7.014Q46.320-7.284 46.908-7.284L46.908-7.284Q47.328-7.284 47.646-7.122Q47.964-6.960 48.204-6.690Q48.444-6.420 48.612-6.108L48.612-6.108L49.752-6.756Q49.548-7.200 49.164-7.608Q48.780-8.016 48.228-8.286Q47.676-8.556 46.932-8.556L46.932-8.556Q46.176-8.556 45.582-8.268Q44.988-7.980 44.640-7.470Q44.292-6.960 44.292-6.288L44.292-6.288Q44.292-5.700 44.520-5.286Q44.748-4.872 45.096-4.590Q45.444-4.308 45.828-4.122Q46.212-3.936 46.524-3.828L46.524-3.828Q47.052-3.636 47.460-3.438Q47.868-3.240 48.090-2.958Q48.312-2.676 48.312-2.220L48.312-2.220Q48.312-1.716 47.952-1.404Q47.592-1.092 47.016-1.092L47.016-1.092Q46.548-1.092 46.158-1.296Q45.768-1.500 45.450-1.860Q45.132-2.220 44.856-2.712ZM56.208-1.248L56.208 0L60.444 0L60.444-1.248L56.208-1.248ZM56.208-8.400L56.208-7.152L60.444-7.152L60.444-8.400L56.208-8.400ZM56.208-5.112L56.208-3.888L60.204-3.888L60.204-5.112L56.208-5.112ZM56.724-8.400L55.332-8.400L55.332 0L56.724 0L56.724-8.400ZM65.424-8.400L65.424-7.092L67.644-7.092L67.644 0L69.060 0L69.060-7.092L71.280-7.092L71.280-8.400L65.424-8.400ZM75.552-8.400L75.552-7.092L77.772-7.092L77.772 0L79.188 0L79.188-7.092L81.408-7.092L81.408-8.400L75.552-8.400ZM87.960-8.400L86.520-8.400L86.520 0L87.960 0L87.960-8.400ZM101.424-8.400L100.032-8.400L100.032-2.760L93.900-8.820L93.900 0L95.292 0L95.292-5.640L101.424 0.420L101.424-8.400ZM111.372-4.392L111.372-3.192L113.952-3.192Q113.844-2.772 113.628-2.400Q113.412-2.028 113.088-1.740Q112.764-1.452 112.320-1.296Q111.876-1.140 111.312-1.140L111.312-1.140Q110.484-1.140 109.824-1.524Q109.164-1.908 108.780-2.598Q108.396-3.288 108.396-4.200L108.396-4.200Q108.396-5.124 108.786-5.802Q109.176-6.480 109.842-6.858Q110.508-7.236 111.312-7.236L111.312-7.236Q112.188-7.236 112.806-6.876Q113.424-6.516 113.772-5.916L113.772-5.916L114.924-6.684Q114.552-7.272 114.024-7.686Q113.496-8.100 112.818-8.328Q112.140-8.556 111.312-8.556L111.312-8.556Q110.364-8.556 109.560-8.238Q108.756-7.920 108.156-7.338Q107.556-6.756 107.226-5.958Q106.896-5.160 106.896-4.200L106.896-4.200Q106.896-3.240 107.220-2.436Q107.544-1.632 108.138-1.044Q108.732-0.456 109.536-0.138Q110.340 0.180 111.288 0.180L111.288 0.180Q112.296 0.180 113.076-0.186Q113.856-0.552 114.384-1.188Q114.912-1.824 115.176-2.646Q115.440-3.468 115.416-4.392L115.416-4.392L111.372-4.392ZM129.180-2.712L129.180-2.712L128.124-1.968Q128.400-1.392 128.874-0.900Q129.348-0.408 129.978-0.114Q130.608 0.180 131.340 0.180L131.340 0.180Q131.880 0.180 132.378 0.006Q132.876-0.168 133.272-0.486Q133.668-0.804 133.902-1.272Q134.136-1.740 134.136-2.328L134.136-2.328Q134.136-2.880 133.944-3.294Q133.752-3.708 133.446-4.008Q133.140-4.308 132.762-4.512Q132.384-4.716 132.000-4.848L132.000-4.848Q131.328-5.088 130.908-5.316Q130.488-5.544 130.290-5.802Q130.092-6.060 130.092-6.384L130.092-6.384Q130.092-6.744 130.368-7.014Q130.644-7.284 131.232-7.284L131.232-7.284Q131.652-7.284 131.970-7.122Q132.288-6.960 132.528-6.690Q132.768-6.420 132.936-6.108L132.936-6.108L134.076-6.756Q133.872-7.200 133.488-7.608Q133.104-8.016 132.552-8.286Q132.000-8.556 131.256-8.556L131.256-8.556Q130.500-8.556 129.906-8.268Q129.312-7.980 128.964-7.470Q128.616-6.960 128.616-6.288L128.616-6.288Q128.616-5.700 128.844-5.286Q129.072-4.872 129.420-4.590Q129.768-4.308 130.152-4.122Q130.536-3.936 130.848-3.828L130.848-3.828Q131.376-3.636 131.784-3.438Q132.192-3.240 132.414-2.958Q132.636-2.676 132.636-2.220L132.636-2.220Q132.636-1.716 132.276-1.404Q131.916-1.092 131.340-1.092L131.340-1.092Q130.872-1.092 130.482-1.296Q130.092-1.500 129.774-1.860Q129.456-2.220 129.180-2.712ZM145.896-8.400L144.276-8.400L142.320-4.812L140.376-8.400L138.756-8.400L141.612-3.528L141.612 0L143.052 0L143.052-3.540L145.896-8.400ZM151.500-2.712L151.500-2.712L150.444-1.968Q150.720-1.392 151.194-0.900Q151.668-0.408 152.298-0.114Q152.928 0.180 153.660 0.180L153.660 0.180Q154.200 0.180 154.698 0.006Q155.196-0.168 155.592-0.486Q155.988-0.804 156.222-1.272Q156.456-1.740 156.456-2.328L156.456-2.328Q156.456-2.880 156.264-3.294Q156.072-3.708 155.766-4.008Q155.460-4.308 155.082-4.512Q154.704-4.716 154.320-4.848L154.320-4.848Q153.648-5.088 153.228-5.316Q152.808-5.544 152.610-5.802Q152.412-6.060 152.412-6.384L152.412-6.384Q152.412-6.744 152.688-7.014Q152.964-7.284 153.552-7.284L153.552-7.284Q153.972-7.284 154.290-7.122Q154.608-6.960 154.848-6.690Q155.088-6.420 155.256-6.108L155.256-6.108L156.396-6.756Q156.192-7.200 155.808-7.608Q155.424-8.016 154.872-8.286Q154.320-8.556 153.576-8.556L153.576-8.556Q152.820-8.556 152.226-8.268Q151.632-7.980 151.284-7.470Q150.936-6.960 150.936-6.288L150.936-6.288Q150.936-5.700 151.164-5.286Q151.392-4.872 151.740-4.590Q152.088-4.308 152.472-4.122Q152.856-3.936 153.168-3.828L153.168-3.828Q153.696-3.636 154.104-3.438Q154.512-3.240 154.734-2.958Q154.956-2.676 154.956-2.220L154.956-2.220Q154.956-1.716 154.596-1.404Q154.236-1.092 153.660-1.092L153.660-1.092Q153.192-1.092 152.802-1.296Q152.412-1.500 152.094-1.860Q151.776-2.220 151.500-2.712ZM161.136-8.400L161.136-7.092L163.356-7.092L163.356 0L164.772 0L164.772-7.092L166.992-7.092L166.992-8.400L161.136-8.400ZM172.980-1.248L172.980 0L177.216 0L177.216-1.248L172.980-1.248ZM172.980-8.400L172.980-7.152L177.216-7.152L177.216-8.400L172.980-8.400ZM172.980-5.112L172.980-3.888L176.976-3.888L176.976-5.112L172.980-5.112ZM173.496-8.400L172.104-8.400L172.104 0L173.496 0L173.496-8.400ZM184.020 0L184.596-5.112L187.152-0.780L189.720-5.112L190.296 0L191.760 0L190.608-8.820L187.152-3.120L183.708-8.820L182.556 0L184.020 0Z"></path></g></svg>